<svg xmlns="http://www.w3.org/2000/svg" width="604.504" height="741.293" viewBox="0 0 604.504 741.293">
  <g id="undraw_air_support_re_nybl" transform="translate(-18.857 -10.081)" opacity="0.5">
    <path id="Path_57" data-name="Path 57" d="M485.385,403.4s-13.871,14.334-15.1,22.415l12.067,6.95,13.928-24.406,7.346-32.58a5.533,5.533,0,1,0-9.226-2.361Z" transform="translate(-63.839 -74.313)" fill="#ffb6b6"/>
    <path id="Path_58" data-name="Path 58" d="M603.65,369.035a5.533,5.533,0,1,0-9.133,2.7l8.549,32.285,14.824,23.873,11.8-7.393c-1.53-8.03-15.924-21.84-15.924-21.84Z" transform="translate(-310.757 -74.313)" fill="#ffb6b6"/>
    <path id="Path_59" data-name="Path 59" d="M436.721,486.136c.087-19.027-7.216-36.961-15.333-53.834-8.388-17.435-17.936-34.54-22.676-53.444a81.356,81.356,0,0,1-1.98-31.937c.286-1.9,3.178-1.094,2.893.8-2.906,19.308,3.376,38.537,11.2,55.951,7.758,17.268,17.43,33.7,23.483,51.7a95.481,95.481,0,0,1,5.415,30.764,1.5,1.5,0,0,1-3,0Z" transform="translate(75.984 -74.313)" fill="#e6e6e6"/>
    <path id="Path_60" data-name="Path 60" d="M673.66,492.521c.641-8.1-5.077-14.858-11.826-18.576-8.565-4.718-18.932-4.313-28.4-4.033a166.633,166.633,0,0,1-29.066-1.382,145.9,145.9,0,0,1-108.038-76.256c-8.9-16.854-15.169-36.286-12.666-55.533a64.413,64.413,0,0,1,1.291-6.955c.457-1.875,3.351-1.081,2.893.8-4.661,19.121.682,39.149,9.154,56.41a144.3,144.3,0,0,0,31.339,42.079,141.842,141.842,0,0,0,46.7,28.835,146.07,146.07,0,0,0,27.739,7.362,152.758,152.758,0,0,0,29.009,1.691c9.645-.281,19.867-.79,28.932,3.114,7.094,3.055,13.68,9.106,15.507,16.841a18.155,18.155,0,0,1,.429,5.6c-.151,1.912-3.153,1.928-3,0Z" transform="translate(-248.143 -74.313)" fill="#e6e6e6"/>
    <path id="Path_61" data-name="Path 61" d="M311.581,215.22c3.53-1.59,7-3.12,10.32-4.53.5-.21,1-.43,1.5-.64l.06-.03q4.485-1.92,8.99-3.76c2.1-.86,4.19-1.71,6.29-2.54.82-.34,1.64-.66,2.47-.98,1.33-.53,2.67-1.05,4-1.57,1.1-.43,2.21-.85,3.31-1.27,1.27-.49,2.54-.96,3.8-1.44q2.25-.84,4.49-1.66a.09.09,0,0,1,.05-.01c1.13-.42,2.26-.83,3.38-1.23,15.21-5.48,30.64-10.38,45.88-14.57l1.65-.45,2.85-.78q2.52-.675,5.06-1.32c1.59-.42,3.19-.82,4.79-1.22,1.41-.35,2.82-.7,4.24-1.04,1.39-.34,2.78-.67,4.18-.99q6.255-1.47,12.49-2.78a.277.277,0,0,1,.09-.01c1-.22,1.99-.43,2.99-.63,15.18-3.11,30.62-5.61,45.89-7.44.75-.09,1.5-.18,2.25-.26h.02c.13-.02.27-.03.4-.04q1.89-.225,3.78-.42c1.66-.18,3.31-.35,4.97-.51q5.895-.585,11.77-1.02c.99-.08,1.97-.15,2.95-.21,1.13-.09,2.26-.16,3.38-.23q1.74-.12,3.48-.21c.44-.03.87-.05,1.3-.07.54-.04,1.09-.06,1.63-.09l2.43-.12c15.24-.73,30.67-.79,45.87-.18.84.03,1.68.07,2.53.11h.03c.61.03,1.22.05,1.84.08l.67.03c1.51.08,3.02.16,4.53.25,1.61.09,3.21.19,4.81.3l3.01.21,1.99.15c4.18.32,8.36.69,12.51,1.11,1.39.14,2.77.28,4.15.43.77.08,1.53.16,2.29.25,15.24,1.72,30.68,4.15,45.88,7.21,1,.2,2.01.41,3.02.62.02,0,.04.01.06.01.15.03.31.06.46.1,1.04.21,2.09.43,3.13.66,1.15.24,2.29.49,3.44.74.96.21,1.92.43,2.88.65,2.26.51,4.53,1.03,6.79,1.58q6.9,1.65,13.79,3.49c1.04.28,2.09.56,3.14.85a.031.031,0,0,1,.02.01c.54.14,1.09.29,1.63.44,15.2,4.18,30.63,9.12,45.87,14.7,1.12.41,2.24.82,3.37,1.25a.236.236,0,0,1,.08.02q4.545,1.7,9.14,3.48c1.11.44,2.23.88,3.35,1.32,1.08.43,2.17.86,3.25,1.3.95.38,1.89.76,2.84,1.15.76.31,1.51.62,2.27.93q3.9,1.62,7.79,3.28c1.57.68,3.15,1.36,4.72,2.05.51.22,1.03.44,1.54.67,3.78,1.67,7.22,3.22,10.52,4.75a20.337,20.337,0,0,1,11.8,18.4v35.29a20.237,20.237,0,0,1-25.93,19.42c-1.49-.44-2.98-.88-4.48-1.32-1.25-.37-2.51-.73-3.76-1.09l-4.1-1.17c-3.13-.87-6.28-1.74-9.43-2.58l-4.41-1.17c-2.31-.61-4.62-1.2-6.93-1.79l-1.92-.48c-10.05-2.52-20.15-4.86-30.17-6.98-1.03-.22-2.06-.43-3.08-.64q-6.315-1.32-12.56-2.5l-3-.57h-.03c-.98-.19-1.96-.37-2.94-.55q-4.11-.75-8.27-1.46c-1.59-.28-3.19-.55-4.79-.81-.16-.03-.32-.06-.48-.08q-4.14-.69-8.3-1.33c-1.88-.29-3.77-.58-5.66-.85-1.61-.24-3.22-.47-4.83-.7-15.26-2.14-30.67-3.85-45.81-5.05-1.31-.11-2.62-.21-3.93-.31-5.08-.38-10.2-.72-15.33-1-6.34-.34-12.7-.61-19.03-.8-15.2-.47-30.61-.47-45.8,0-6.34.19-12.7.46-19.04.8-5.13.28-10.25.62-15.33,1-1.31.1-2.62.2-3.93.31-15.13,1.2-30.54,2.9-45.82,5.05-.73.1-1.45.21-2.18.31-.26.04-.51.07-.77.11-1.11.16-2.22.33-3.33.49q-6.255.93-12.5,1.97c-1.07.17-2.14.35-3.2.53q-3.435.585-6.84,1.19c-1.32.24-2.63.48-3.94.72-.83.15-1.67.3-2.5.46-1.01.19-2.02.38-3.02.57-1.65.31-3.3.63-4.96.96-1.04.21-2.09.41-3.14.63-11.19,2.25-22.49,4.78-33.74,7.54l-3.51.87-.47.12c-1.21.3-2.42.61-3.63.92q-2.595.66-5.2,1.35-2.205.57-4.41,1.17c-4.54,1.21-9.08,2.47-13.59,3.76q-4.125,1.185-8.21,2.4h-.02a19.757,19.757,0,0,1-3.32.68,19.331,19.331,0,0,1-2.4.15,20.222,20.222,0,0,1-20.18-20.25V233.71a20.319,20.319,0,0,1,12.01-18.49Z" transform="translate(-191.607 -74.313)" fill="#00ff2e"/>
    <path id="Path_62" data-name="Path 62" d="M322.911,196.57a3.025,3.025,0,0,1,2.72-.37.236.236,0,0,1,.08.02q4.545,1.7,9.14,3.48c1.11.44,2.23.88,3.35,1.32,1.08.43,2.17.86,3.25,1.3.95.38,1.89.76,2.84,1.15.76.31,1.51.62,2.27.93q3.9,1.62,7.79,3.28c1.57.68,3.15,1.36,4.72,2.05a3.064,3.064,0,0,1,1.84,2.81v72.77a3.055,3.055,0,0,1-1.24,2.47,3.261,3.261,0,0,1-.8.43,3,3,0,0,1-1.87.04l-4.47-1.32-3.75-1.08c-1.37-.39-2.74-.78-4.12-1.17-3.13-.87-6.28-1.74-9.43-2.58q-2.205-.6-4.41-1.17c-2.31-.61-4.62-1.2-6.93-1.79a3.094,3.094,0,0,1-1.49-.88l-.01-.01a3.066,3.066,0,0,1-.8-2.06v-77.1a3.061,3.061,0,0,1,1.32-2.52Z" transform="translate(229.183 -74.313)" fill="#3f3d56"/>
    <path id="Path_63" data-name="Path 63" d="M406.891,172.35a3,3,0,0,1,2.48-.63c.02,0,.04.01.06.01.15.03.31.06.46.1,1.04.21,2.09.43,3.13.66,1.15.24,2.29.49,3.44.74.96.21,1.92.43,2.88.65,2.26.51,4.53,1.03,6.79,1.58q6.915,1.65,13.79,3.49c.96.25,1.93.51,2.89.77a2.411,2.411,0,0,1,.25.08.031.031,0,0,1,.02.01,3.079,3.079,0,0,1,1.99,2.87v82.29a3.045,3.045,0,0,1-1.1,2.35,2.9,2.9,0,0,1-.79.47,3.076,3.076,0,0,1-1.16.23,3.283,3.283,0,0,1-.54-.05h-.03c-.98-.19-1.96-.37-2.94-.55q-4.11-.75-8.27-1.46c-1.59-.28-3.19-.55-4.79-.81-.16-.03-.32-.06-.48-.08q-4.14-.69-8.3-1.33c-1.88-.29-3.77-.58-5.66-.85-.88-.14-1.76-.26-2.64-.39a2.994,2.994,0,0,1-1.57-.72,3.065,3.065,0,0,1-1.05-2.3V174.73A3.05,3.05,0,0,1,406.891,172.35Z" transform="translate(60.863 -74.313)" fill="#3f3d56"/>
    <path id="Path_64" data-name="Path 64" d="M490.861,161.93a3.089,3.089,0,0,1,2.1-.85h.15c.57.03,1.15.05,1.72.08l.67.03c1.51.08,3.02.16,4.53.25,1.61.09,3.21.19,4.81.3l3.01.21,1.99.15c4.18.32,8.36.69,12.51,1.11,1.39.14,2.77.28,4.15.43a3.058,3.058,0,0,1,2.73,3.05v87.19a3.014,3.014,0,0,1-.98,2.23,2.968,2.968,0,0,1-.62.45,3.072,3.072,0,0,1-1.46.37c-.07,0-.15-.01-.23-.01l-1.18-.09c-5.08-.38-10.2-.72-15.33-1-5.53-.31-11.06-.55-16.56-.73a2.961,2.961,0,0,1-1.66-.54,3.047,3.047,0,0,1-1.3-2.51v-87.9a3.039,3.039,0,0,1,.95-2.22Z" transform="translate(-107.457 -74.313)" fill="#3f3d56"/>
    <path id="Path_65" data-name="Path 65" d="M576.751,164.07h.02c.13-.02.27-.03.4-.04q1.89-.225,3.78-.42c1.66-.18,3.31-.35,4.97-.51q5.895-.585,11.77-1.02c.99-.08,1.97-.15,2.95-.21,1.13-.09,2.26-.16,3.38-.23q1.74-.12,3.48-.21c.44-.03.87-.05,1.3-.07.46-.03.91-.06,1.36-.08a2.443,2.443,0,0,1,.27-.01,2.989,2.989,0,0,1,1.99.84,3.049,3.049,0,0,1,.96,2.23v87.71a3.03,3.03,0,0,1-1.31,2.51,2.929,2.929,0,0,1-1.65.54c-5.5.18-11.03.42-16.56.73-5.13.28-10.25.62-15.33,1l-1.18.09c-.08,0-.15.01-.23.01a3.073,3.073,0,0,1-1.46-.37,2.967,2.967,0,0,1-.62-.45,3.051,3.051,0,0,1-.98-2.23V167.11A3.074,3.074,0,0,1,576.751,164.07Z" transform="translate(-275.757 -74.313)" fill="#3f3d56"/>
    <path id="Path_66" data-name="Path 66" d="M660.241,180.54a2.271,2.271,0,0,1,.24-.08c.87-.24,1.74-.47,2.61-.7q2.52-.675,5.06-1.32c1.59-.42,3.19-.82,4.79-1.22,1.41-.35,2.82-.7,4.24-1.04,1.39-.34,2.78-.67,4.18-.99q6.255-1.47,12.49-2.78a.276.276,0,0,1,.09-.01,3.009,3.009,0,0,1,2.46.63,3.05,3.05,0,0,1,1.14,2.38v84.07a3.039,3.039,0,0,1-1.06,2.3,2.962,2.962,0,0,1-1.56.72c-.26.04-.51.07-.77.11-1.11.16-2.22.32-3.33.49q-6.255.93-12.5,1.97c-1.07.17-2.14.35-3.2.53q-3.435.585-6.84,1.19c-1.32.24-2.63.48-3.94.72-.83.15-1.67.3-2.5.46a3.651,3.651,0,0,1-.57.05,3.038,3.038,0,0,1-1.161-.23,2.758,2.758,0,0,1-.79-.47,3.045,3.045,0,0,1-1.1-2.35V183.42A3.071,3.071,0,0,1,660.241,180.54Z" transform="translate(-444.077 -74.313)" fill="#3f3d56"/>
    <path id="Path_67" data-name="Path 67" d="M744.181,210.05l.06-.03q4.485-1.92,8.99-3.76c2.1-.86,4.19-1.71,6.29-2.54.82-.34,1.64-.66,2.47-.98,1.33-.53,2.67-1.05,4-1.57,1.1-.43,2.21-.85,3.31-1.27,1.27-.49,2.54-.96,3.8-1.44q2.25-.84,4.49-1.66a.09.09,0,0,1,.05-.01,2.975,2.975,0,0,1,2.74.38,3.059,3.059,0,0,1,1.31,2.51v76.51a3.038,3.038,0,0,1-.57,1.77,3.251,3.251,0,0,1-.23.29l-.01.01a3.05,3.05,0,0,1-1.49.88c-.57.14-1.14.29-1.71.44q-2.595.66-5.2,1.35-2.205.57-4.41,1.17c-4.54,1.21-9.08,2.47-13.59,3.76q-4.125,1.185-8.21,2.4h-.02a3.117,3.117,0,0,1-.85.12,3.028,3.028,0,0,1-.99-.17,2.958,2.958,0,0,1-.8-.43,3.074,3.074,0,0,1-1.23-2.47V212.84a3.052,3.052,0,0,1,1.8-2.79Z" transform="translate(-612.387 -74.313)" fill="#3f3d56"/>
    <path id="Path_68" data-name="Path 68" d="M531.64,286.989c-13.022,8.775-26.619,16.665-40.322,24.319-14.659,8.189-29.471,16.1-44.132,24.284-14.75,8.233-29.369,16.732-43.471,26.041a300,300,0,0,0-38.766,29.842c-11.448,10.6-21.817,22.438-29.968,35.774q-1.458,2.385-2.818,4.828c-.941,1.686-3.533.175-2.59-1.514a164.39,164.39,0,0,1,28.7-36.871,279.4,279.4,0,0,1,38.146-30.765c14.01-9.59,28.615-18.28,43.388-26.633,14.73-8.328,29.651-16.312,44.459-24.5,13.939-7.708,27.808-15.586,41.16-24.282q2.362-1.538,4.7-3.114c1.605-1.082,3.109,1.516,1.514,2.59Z" transform="translate(49.996 -74.313)" fill="#3f3d56"/>
    <path id="Path_69" data-name="Path 69" d="M523.346,251.785a224.839,224.839,0,0,1-22.876,39.938,468.659,468.659,0,0,1-29.425,36.929c-10.426,12.011-21.164,23.745-31.665,35.689-10.382,11.808-20.561,23.825-29.857,36.516A239.725,239.725,0,0,0,385.6,440.312q-1.214,2.583-2.347,5.2c-.766,1.767-3.351.241-2.59-1.514a224.837,224.837,0,0,1,22.876-39.937,468.631,468.631,0,0,1,29.425-36.929c10.426-12.011,21.164-23.745,31.665-35.689,10.382-11.808,20.561-23.825,29.857-36.516a239.723,239.723,0,0,0,23.923-39.456q1.214-2.583,2.347-5.2C521.521,248.5,524.107,250.03,523.346,251.785Z" transform="translate(7.675 -74.313)" fill="#3f3d56"/>
    <path id="Path_70" data-name="Path 70" d="M570.019,269.674a376.881,376.881,0,0,0,36.28,30.5c13.2,9.935,26.758,19.381,40.249,28.914,13.469,9.517,26.891,19.118,39.824,29.358a309.168,309.168,0,0,1,35.056,31.775c10.132,10.924,19.213,22.955,26.02,36.244q1.228,2.4,2.354,4.844c.8,1.741-1.782,3.267-2.59,1.514a152.137,152.137,0,0,0-24.481-36.7,283.353,283.353,0,0,0-34.115-32.059c-12.713-10.32-25.991-19.919-39.344-29.389-13.5-9.575-27.109-19.006-40.406-28.865a424.36,424.36,0,0,1-36.876-30.121q-2.067-1.927-4.094-3.9c-1.387-1.348.735-3.468,2.121-2.121Z" transform="translate(-405.715 -74.313)" fill="#3f3d56"/>
    <path id="Path_71" data-name="Path 71" d="M578.959,242.059A224.839,224.839,0,0,0,601.835,282a464.733,464.733,0,0,0,29.459,36.9c10.436,12,21.175,23.736,31.669,35.687,10.375,11.815,20.523,23.855,29.819,36.545A239.722,239.722,0,0,1,716.7,430.586q1.214,2.583,2.347,5.2c.76,1.753-1.824,3.283-2.59,1.514a224.837,224.837,0,0,0-22.877-39.937,464.759,464.759,0,0,0-29.459-36.9c-10.436-12-21.175-23.736-31.669-35.687-10.375-11.815-20.523-23.855-29.819-36.545a239.724,239.724,0,0,1-23.923-39.456q-1.214-2.583-2.347-5.2c-.76-1.753,1.824-3.283,2.59-1.514Z" transform="translate(-383.735 -74.313)" fill="#3f3d56"/>
    <path id="Path_72" data-name="Path 72" d="M234.762,548.641l-1.891,6.559-26.2-4.171,2.791-9.682Z" transform="translate(181.93 0)" fill="#ffb6b6"/>
    <path id="Path_73" data-name="Path 73" d="M501.475,624.694l-5.814,20.172-.255-.074a8.172,8.172,0,0,1-5.589-10.114h0l-1.734-4.49,4.777-6.069.508-1.761Z" transform="translate(-77.875 -74.313)" fill="#2f2e41"/>
    <path id="Path_74" data-name="Path 74" d="M320.058,580.861l-6.661-1.5,2.6-26.4,9.831,2.21Z" transform="translate(-15.868 0)" fill="#ffb6b6"/>
    <path id="Path_75" data-name="Path 75" d="M625.512,662.654l-20.482-4.6.058-.259a8.172,8.172,0,0,1,9.764-6.181h0l4.379-2,6.343,4.407,1.788.4Z" transform="translate(-320.708 -74.313)" fill="#2f2e41"/>
    <path id="Path_76" data-name="Path 76" d="M535.393,513.76,505.232,637.52l14.754,1.307,16.348-41.418,25.235-48.749L559.287,604.3l46.949,27.457,11.033-15.114-37.533-20.187,16.4-73.637-4.364-9.06Z" transform="translate(-210.816 -74.313)" fill="#2f2e41"/>
    <path id="Path_77" data-name="Path 77" d="M581.322,524.6c4.889-6.845-4.156-18.116-5.265-20.5h0a5.986,5.986,0,0,0,4.1-6.394l-.478-4.064-.5-3.987,3.57-3.57.01-.089,2.055-17.979,2.987-11.941a26.216,26.216,0,0,0-7.441-25.407l-6.906-1.1-8.392-8.086H551.528l-4.64,4.434c-8.663,1.519-10.151,1.023-17.592,9.952l3.381,27.761.844,3.819,0,5.18-2.144,2.383a7.416,7.416,0,0,0-1.759,6.415l.282,1.41h0c-2.212.948-4.322,17.792-4.826,20.144l-.753,3.514c-.644.85-4.9,6.521-4.9,8.072,0,.233.172.458.541.707,2.9,1.963,28.271,7.159,35.362,4.321C562.875,516.577,581.322,524.6,581.322,524.6Z" transform="translate(-196.315 -74.313)" fill="#e6e6e6"/>
    <path id="Path_78" data-name="Path 78" d="M520.277,442.226l-5.951,7.278a26.84,26.84,0,0,1-18.179,9.724h0a11.75,11.75,0,0,1-11.1-5.535h0a11.723,11.723,0,0,1,3.272-15.667c7.372-5.182,11.393-13.21,17.189-10.607l1.247-3.062,16.34-13.2,13.392,11.492Z" transform="translate(-108.15 -74.313)" fill="#e6e6e6"/>
    <path id="Path_79" data-name="Path 79" d="M560.708,418.142l12.957-11.981L583.77,412.6l1.36,3.014c5.695-2.816,16.725,11.21,24.284,16.115a11.722,11.722,0,0,1,3.851,15.535h0a11.75,11.75,0,0,1-10.886,5.943h0a26.84,26.84,0,0,1-18.527-9.043l-6.216-7.052Z" transform="translate(-263.772 -74.313)" fill="#e6e6e6"/>
    <ellipse id="Ellipse_4" data-name="Ellipse 4" cx="15.03" cy="15.03" rx="15.03" ry="15.03" transform="translate(347.863 313.205)" fill="#ffb6b6"/>
    <path id="Path_80" data-name="Path 80" d="M537.491,413.142c.131-.115.255-.238.383-.356,0,.012.005.025.01.037Z" transform="translate(-163.69 -74.313)" fill="#2f2e41"/>
    <path id="Path_81" data-name="Path 81" d="M530.647,396.91c.08-.05.15-.1.23-.14a5.472,5.472,0,0,1,3.47-1.17c1.2.15,2.19,1.01,3.34,1.35,2.47.72,4.96-1.04,7.52-1.22h.06a6.222,6.222,0,0,1,6.6,5.82c.05.83-.06,1.66.04,2.48a2.54,2.54,0,0,0,1.26,2.03c1.13.51,2.65-.25,3.61.54.85.71.54,2.09.03,3.08a4.5,4.5,0,0,0-.83,2.87,2.16,2.16,0,0,0,.07.24,22.612,22.612,0,0,0,7.2-16.89,8.917,8.917,0,0,0-.84-4.04,4.217,4.217,0,0,0-3.21-2.37c-1.18-.1-2.4.43-3.52.05-1.38-.46-1.96-2.05-2.68-3.33a9.619,9.619,0,0,0-8.8-4.77,19.076,19.076,0,0,0-3.74.75l-2.38.65a12.852,12.852,0,0,0-2.63.93,8.559,8.559,0,0,0-3.01,2.91,12.947,12.947,0,0,0-1.49,3.12,22.657,22.657,0,0,0,3.95-.14c-1.5.93-3.01,1.86-4.51,2.79a12.687,12.687,0,0,0,.26,4.46Z" transform="translate(-181.863 -74.313)" fill="#2f2e41"/>
    <ellipse id="Ellipse_5" data-name="Ellipse 5" cx="49.432" cy="49.432" rx="49.432" ry="49.432" transform="translate(511.661 10.081)" fill="#ff6584"/>
    <path id="Path_82" data-name="Path 82" d="M790.139,100.34c2.86-9.58,10.94-15.83,20.7-17.2.1-.01.21.01.31,0a2.858,2.858,0,0,1,.42-.1,61.7,61.7,0,0,1,39.69,8.64,63.745,63.745,0,0,0,8.5,4.46,82.38,82.38,0,0,0,29.75,6.44c.08,0,.16.01.24.01A24.424,24.424,0,0,1,911.6,120.2a2.859,2.859,0,0,1-1.28,3.13,12.606,12.606,0,0,1-5.16,2.63q-6.165,1.305-12.36,2.39-12.105,2.115-24.33,3.42-8.1.87-16.23,1.36c-11.18.7-22.41.87-33.61.52-5.54-.17-10.88-.35-15.96-2.8a23.676,23.676,0,0,1-9.15-7.99,26.955,26.955,0,0,1-3.38-22.52Z" transform="translate(-338.931 -48.694)" fill="#f2f2f2"/>
    <path id="Path_83" data-name="Path 83" d="M630.085,468.59c2.06-6.9,7.88-11.41,14.92-12.4.08-.01.15.01.23,0a2.626,2.626,0,0,1,.3-.07,44.43,44.43,0,0,1,28.62,6.23c8.25,5.15,17.86,7.48,27.58,7.86a1.026,1.026,0,0,1,.17.01,17.612,17.612,0,0,1,15.75,12.69,2.059,2.059,0,0,1-.92,2.26,8.952,8.952,0,0,1-3.72,1.89c-2.96.63-5.94,1.2-8.92,1.73-5.81,1.01-11.67,1.83-17.54,2.46a259.688,259.688,0,0,1-35.93,1.36c-3.99-.12-7.84-.25-11.5-2.02a17.1,17.1,0,0,1-6.61-5.76,19.453,19.453,0,0,1-2.43-16.24Z" transform="translate(-435.321 -74.313)" fill="#f2f2f2"/>
    <path id="Path_84" data-name="Path 84" d="M314.085,386.59c2.06-6.9,7.88-11.41,14.92-12.4.08-.01.15.01.23,0a2.643,2.643,0,0,1,.3-.07,44.43,44.43,0,0,1,28.62,6.23c8.25,5.15,17.86,7.48,27.58,7.86a1.029,1.029,0,0,1,.17.01,17.612,17.612,0,0,1,15.75,12.69,2.059,2.059,0,0,1-.92,2.26,8.952,8.952,0,0,1-3.72,1.89c-2.96.63-5.94,1.2-8.92,1.73-5.81,1.01-11.67,1.83-17.54,2.46a259.689,259.689,0,0,1-35.93,1.36c-3.99-.12-7.84-.25-11.5-2.02a17.1,17.1,0,0,1-6.61-5.76,19.453,19.453,0,0,1-2.43-16.24Z" transform="translate(196.679 -74.313)" fill="#f2f2f2"/>
    <path id="Path_85" data-name="Path 85" d="M326.818,814.317q-5.07,5.565-9.84,11.37a375.59,375.59,0,0,0,133.21-51.4c.85-.53,1.69-1.06,2.53-1.6a379.423,379.423,0,0,0,63.94-51.21c-3.4-3.19-5.5-5.09-5.5-5.09-47.45-50.96-52.77-68.9-100.22-119.86-15.78,63.94-82.13,108.36-116.93,164.27a130.853,130.853,0,0,0,32.97,16.65c.08.09.16.19.24.28a27.581,27.581,0,0,1-.4,36.59Z" transform="translate(101.019 -74.313)" fill="#f2f2f2"/>
    <path id="Path_86" data-name="Path 86" d="M624.256,634.177a379.873,379.873,0,0,0,117.46,130.57c1.04.72,2.08,1.44,3.13,2.15a376.19,376.19,0,0,0,113.13,51.75,21.689,21.689,0,0,1,6.43-3.41v-.02l-7.8-14.58c8.98,9.16,24.64,10.73,35.26,3.55a33.445,33.445,0,0,0-7.34-10.51c2.6,1.19,6.64-.53,7.76-3.53,1.41-3.75-.19-7.9-1.87-11.54-18.53-40.08-79.24-104.97-80.19-105.98.65.4,28.37,17.81,44.45,16.52.82-4.92,22.15-10.93,24.53-13.43-9.69-21.79-54.63-62.33-54.63-62.33-47.45-50.96-52.77-68.9-100.22-119.86C710.856,548.227,660.356,588.637,624.256,634.177Z" transform="translate(-605.4 -74.313)" fill="#f2f2f2"/>
    <g id="Group_48" data-name="Group 48" transform="translate(109.997 134.408)" opacity="0.2">
      <path id="Path_87" data-name="Path 87" d="M289.246,272.364c-.3-.391-.6-.768-.906-1.153l-.016-.154Z" transform="translate(224.118 -208.721)"/>
      <path id="Path_88" data-name="Path 88" d="M300.068,276.487a19.749,19.749,0,0,0,20.49,11.96,20.087,20.087,0,0,0,3.26-.67q17.535-5.22,35.06-9.6,22.92-5.76,45.84-10.13,19.155-3.66,38.31-6.35,22.935-3.225,45.85-5.06,19.155-1.545,38.32-2.11,22.92-.705,45.83,0,19.155.57,38.32,2.11,22.92,1.83,45.84,5.06,19.155,2.7,38.32,6.35,22.92,4.365,45.84,10.13,17.535,4.4,35.05,9.6a20.084,20.084,0,0,0,3.26.67,19.736,19.736,0,0,0,22.03-19.61V259.6c-22.55-20.39-54.45-29.84-85.21-33.06-36.58-3.83-73.75-.56-110.13-5.99-29.66-4.43-59.13-14.64-88.91-11.09-25.95,3.08-49.6,16.38-75.19,21.7-32.1,6.67-65.99.54-97.8,8.47-12.47,3.1-24.69,8.55-33.6,17.8A43.425,43.425,0,0,0,300.068,276.487Z" transform="translate(-300.068 -208.721)"/>
    </g>
    <ellipse id="Ellipse_6" data-name="Ellipse 6" cx="19.213" cy="19.213" rx="19.213" ry="19.213" transform="translate(342.022 372.284)" fill="#00ff2e"/>
    <path id="Path_89" data-name="Path 89" d="M553.071,475.809a2.137,2.137,0,0,0,1.71-.855l5.242-6.989A2.137,2.137,0,0,0,556.6,465.4l-3.429,4.572-8.807-13.211a2.137,2.137,0,1,0-3.556,2.371l10.483,15.724a2.138,2.138,0,0,0,1.719.951Z" transform="translate(-189.215 -74.313)" fill="#fff"/>
    <path id="Path_90" data-name="Path 90" d="M772.241,577.957q1.365,22.425,2.72,44.86,2.4,39.63,4.8,79.27,1.89,31.335,3.79,62.66c1.04.72,2.08,1.44,3.13,2.15q-.915-14.955-1.81-29.91-2.4-39.645-4.8-79.27-2.415-39.885-4.83-79.76C775.131,576.027,772.131,576.027,772.241,577.957Z" transform="translate(-647.234 -74.313)" fill="#fff"/>
    <path id="Path_91" data-name="Path 91" d="M753.813,651.61l-52.869-44.576-14.834-12.507c-1.478-1.246.653-3.359,2.121-2.121L741.1,636.982l14.834,12.507C757.412,650.735,755.281,652.848,753.813,651.61Z" transform="translate(-530.36 -74.313)" fill="#fff"/>
    <path id="Path_92" data-name="Path 92" d="M731.413,735.453l-38.551-34.016c-1.451-1.28.678-3.4,2.121-2.121l38.551,34.016C734.985,734.612,732.856,736.727,731.413,735.453Z" transform="translate(-514.711 -74.313)" fill="#fff"/>
    <path id="Path_93" data-name="Path 93" d="M360.413,720.453l-38.551-34.016c-1.451-1.28.678-3.4,2.121-2.121l38.551,34.016C363.985,719.612,361.856,721.727,360.413,720.453Z" transform="translate(227.289 -74.313)" fill="#fff"/>
    <path id="Path_94" data-name="Path 94" d="M848.1,622.372a29.531,29.531,0,0,0-25.8,13.081c-1.054,1.608-3.653.107-2.59-1.514A32.577,32.577,0,0,1,848.1,619.372C850.021,619.462,850.032,622.463,848.1,622.372Z" transform="translate(-757.321 -74.313)" fill="#fff"/>
    <path id="Path_95" data-name="Path 95" d="M460.809,678.645a121.126,121.126,0,0,0-58.043,58.87c-.8,1.753-3.391.23-2.59-1.514a124.708,124.708,0,0,1,42.634-50.448,120.9,120.9,0,0,1,16.486-9.5c1.734-.826,3.258,1.76,1.514,2.59Z" transform="translate(50.081 -74.313)" fill="#fff"/>
    <path id="Path_96" data-name="Path 96" d="M357.976,657.787q3.09,17.175,7.54,34.07a438.208,438.208,0,0,0,19.86,58.35q5.13,12.21,10.99,24.08c.85-.53,1.69-1.06,2.53-1.6A437.294,437.294,0,0,1,360.876,657C360.536,655.1,357.636,655.907,357.976,657.787Z" transform="translate(154.841 -74.313)" fill="#fff"/>
    <ellipse id="Ellipse_7" data-name="Ellipse 7" cx="14.564" cy="14.564" rx="14.564" ry="14.564" transform="translate(470.142 418.213)" fill="#e6e6e6"/>
    <path id="Path_97" data-name="Path 97" d="M428.966,514.67a1.62,1.62,0,0,0,1.3-.648l3.973-5.3a1.62,1.62,0,1,0-2.592-1.944l-2.6,3.466-6.677-10.015a1.62,1.62,0,1,0-2.7,1.8l7.947,11.92a1.621,1.621,0,0,0,1.3.721Z" transform="translate(57.727 -74.313)" fill="#fff"/>
    <ellipse id="Ellipse_8" data-name="Ellipse 8" cx="14.564" cy="14.564" rx="14.564" ry="14.564" transform="translate(442.093 418.213)" fill="#e6e6e6"/>
    <path id="Path_98" data-name="Path 98" d="M457.014,514.67a1.62,1.62,0,0,0,1.3-.648l3.973-5.3a1.62,1.62,0,0,0-2.592-1.944l-2.6,3.466-6.677-10.015a1.62,1.62,0,1,0-2.7,1.8l7.947,11.92a1.621,1.621,0,0,0,1.3.721Z" transform="translate(1.631 -74.313)" fill="#fff"/>
    <ellipse id="Ellipse_9" data-name="Ellipse 9" cx="14.564" cy="14.564" rx="14.564" ry="14.564" transform="translate(456.496 394.713)" fill="#e6e6e6"/>
    <path id="Path_99" data-name="Path 99" d="M442.611,491.17a1.62,1.62,0,0,0,1.3-.648l3.973-5.3a1.62,1.62,0,1,0-2.592-1.944l-2.6,3.466-6.677-10.015a1.62,1.62,0,0,0-2.7,1.8l7.947,11.92a1.621,1.621,0,0,0,1.3.721Z" transform="translate(30.437 -74.313)" fill="#fff"/>
    <path id="Path_100" data-name="Path 100" d="M399.6,484.587l2.151.215,10.613,28.048h57.612L480.588,484.8l2.151-.215a4.939,4.939,0,0,1,5.43,4.914v63.578a18.9,18.9,0,0,1-18.9,18.9h-56.2a18.9,18.9,0,0,1-18.9-18.9V489.5a4.939,4.939,0,0,1,5.431-4.914Z" transform="translate(29.348 -74.313)" fill="#f2f2f2"/>
    <path id="Path_101" data-name="Path 101" d="M535.616,421.1c.711-2.091,3.453-2.487,5.662-2.48q7.386.022,14.756.628l-.493-.569a7.338,7.338,0,0,1,4.137-.464c1.355.384,2.469,1.94,1.857,3.209-.46.953-1.745,1.558-1.652,2.612.156,1.784,3.609,1.191,4.146,2.9a1.681,1.681,0,0,1-.756,1.785,4.557,4.557,0,0,1-1.962.622,40.414,40.414,0,0,1-21.567-2.781,9.02,9.02,0,0,1-3.183-1.987,3.6,3.6,0,0,1-.945-3.474Z" transform="translate(-187.877 -74.313)" fill="#e6e6e6"/>
  </g>
</svg>
