<svg xmlns="http://www.w3.org/2000/svg" width="302" height="580.76" viewBox="0 0 302 580.76">
  <g id="undraw_with_love_re_1q3m" transform="translate(-120.026)" opacity="0.5">
    <path id="Path_321" data-name="Path 321" d="M643.69,150.051a23.9,23.9,0,0,1,4.268-10.518c13.152-17.567,35.95-19.3,50.919-3.859l.3.321c8.622-9.808,20.78-14.064,32.572-11.4s21.736,11.909,26.641,24.771a46.473,46.473,0,0,1-1.542,36.536,42.868,42.868,0,0,1-4.246,6.97c-1.663,2.228-46.567,60.852-47.015,61.44a.536.536,0,0,1-.433.232c-.015,0-.038-.009-.061-.009a.179.179,0,0,1-.091-.027.6.6,0,0,1-.357-.3l-.235-.455-.281-.562-4.155-8.147a257.813,257.813,0,0,0-46.172-63.366,32.923,32.923,0,0,1-3.41-4.1,39.658,39.658,0,0,1-7.064-20.287,33.31,33.31,0,0,1,.357-7.238Z" transform="translate(-523.248 -123.815)" fill="#f50057"/>
    <path id="Path_322" data-name="Path 322" d="M521.739,659.9l-8.457-32.321a93.6,93.6,0,0,1,37.157-29.215c-13.9,27.024-.431,62.278-6.044,93.149-3.673,19.472-14.693,35.927-29.948,44.717L501.615,754.9c-13.615-27.916-16.132-61.429-6.886-91.709a113.8,113.8,0,0,1,10.479-23.637C512.833,650.071,521.739,659.9,521.739,659.9Z" transform="translate(-195.285 -175.377)" fill="#f2f2f2"/>
    <path id="Path_323" data-name="Path 323" d="M455.46,667.068l4.714-33.354a80.361,80.361,0,0,1,44.359-6.7c-22.711,16.913-24.053,55.516-40.808,80.21-10.688,15.506-26.8,24.465-43.8,24.349l-18.577,9.985c-1.577-32.112,8.906-63.424,28.688-85.687A92.717,92.717,0,0,1,448.4,640.2C451.226,653.606,455.46,667.068,455.46,667.068Z" transform="translate(-82.506 -175.737)" fill="#f2f2f2"/>
    <path id="Path_324" data-name="Path 324" d="M344.207,301.536l2.335,6.373-3.816,22.637-38.93-6.353.311-27.6.782-6.046Z" transform="translate(-64.092 -31.608)" fill="#ffb6b6"/>
    <path id="Path_325" data-name="Path 325" d="M293.065,627.266h-8.589l-4.087-38.877h12.676Z" transform="translate(7.163 -63.97)" fill="#ffb6b6"/>
    <path id="Path_326" data-name="Path 326" d="M557.174,764.426l13.041-10.573v-6.9l1.516.111,9.406.657,2.8.192,1.731,24.371h-6.159l-1.094-6.823-2.817,6.823h-16.34a3.791,3.791,0,0,1-3.5-3.028,4.727,4.727,0,0,1,1.419-4.827Z" transform="translate(-280.908 -191.521)" fill="#2f2e41"/>
    <path id="Path_327" data-name="Path 327" d="M354.26,624.89h-8.589l-5.052-57.236,16.138-1.132Z" transform="translate(-102.276 -61.594)" fill="#ffb6b6"/>
    <path id="Path_328" data-name="Path 328" d="M620.693,764.426l13.041-10.573v-6.9l1.654.111,9.57.677,2.5.172,1.731,24.371h-6.159l-1.094-6.823-2.817,6.823h-16.34a3.791,3.791,0,0,1-3.5-3.028,4.727,4.727,0,0,1,1.419-4.827Z" transform="translate(-392.671 -191.521)" fill="#2f2e41"/>
    <path id="Path_329" data-name="Path 329" d="M629.674,688.232h-.033l-1.652-63.213a19.081,19.081,0,0,0-.185-15.62l-.236-.5.613-3.336a24.685,24.685,0,0,0-1.035-12.787l-1.541-58.966c5.505-41.87-20.731-69.176-20.731-69.176l2.411-21.945-42.435,1.132.722,20.814-8.438,34.021c-4.441,50.771-4.7,100.51-.162,149.061a1.074,1.074,0,0,1-.052.41,14.32,14.32,0,0,0,.853,10,4.216,4.216,0,0,1,.384,1.241c.936,8.511,1.058-2.255,2.3,6.181l-.241.143c-.869.352-1.242,1.765-.833,3.155s1.445,2.233,2.314,1.881l22.685.285c.869-.352,1.242-1.765.833-3.155s-1.445-2.233-2.314-1.881l-1.411.838,2.361-9.066.828-.907a4.638,4.638,0,0,0,1.131-3.428,4.4,4.4,0,0,0-1.588-3.169h0l-.686-26.319-.334-11.142.688-12.64,3.181-56.855L599.112,613.2l12.3,75.732a2.93,2.93,0,0,0-.706,2.454,2.451,2.451,0,0,0,2.329,2.17h16.7a2.179,2.179,0,0,0,1.808-1.053,3.044,3.044,0,0,0,.382-2.326A2.379,2.379,0,0,0,629.674,688.232Z" transform="translate(-325.801 -158.462)" fill="#2f2e41"/>
    <path id="Path_330" data-name="Path 330" d="M618.325,302.876c0,11.1-6.319,20.841-15.443,23.784s-18.8-1.636-23.63-11.183-3.63-21.707,2.936-29.7l.1-.118c.168-.207.336-.414.513-.612a.008.008,0,0,0,.006,0,.011.011,0,0,0,0-.007,4.748,4.748,0,0,0,.664-.7c2.836-4.651,6.052-8.551,13.841-6.115C608.529,281.728,618.325,289.256,618.325,302.876Z" transform="translate(-329.301 -140.51)" fill="#2f2e41"/>
    <path id="Path_331" data-name="Path 331" d="M634.55,293.065a9.859,9.859,0,0,0,2.5,7.055,6.981,6.981,0,0,0,6.216,2.278l54.183,52.185,8.276-17.071-55.862-45.928c-.78-4.509-4.311-7.62-8.219-7.242s-6.956,4.126-7.1,8.724Z" transform="translate(-460.937 -141.253)" fill="#ffb6b6"/>
    <path id="Path_332" data-name="Path 332" d="M660,373.719s-1.765,4.3-8.63-1.807c-5.5-4.888-31.734-25.975-37.562-34.889a5.488,5.488,0,0,1-7.207-2.029l14.335-16.2c4.5.357,4.544,3.889,4.159,5.917l11.521,5.372,30.006,20.231-5.3,20.322Z" transform="translate(-400.607 -145)" fill="#e6e6e6"/>
    <ellipse id="Ellipse_43" data-name="Ellipse 43" cx="17.618" cy="20.675" rx="17.618" ry="20.675" transform="translate(245.22 147.396)" fill="#ffb7b7"/>
    <path id="Path_333" data-name="Path 333" d="M575.2,418.2l-.181-11.534c-.715-1.152-6.71-11.21-5.366-21.258a18.14,18.14,0,0,1,6.486-11.8l2.369-6.469,3.506-9.563,10.259-7.167,1.421-3.4,1.171-2.82,14.152-1.658,3.488,5.509.069.01a21.578,21.578,0,0,1,8.829,4.852c5.814,5.176,9.225,13.25,9.217,21.814l-.086,13.4-.017,1.921-.009,1.86L621.68,419.8l-.336,1.082-3.463,10.927.594,1.152a6.871,6.871,0,0,1-1.146,7.854l-.413,6.833-.749-.243-4.264-1.395-32.249-10.563a5.908,5.908,0,0,1-3.058-2.416,1.479,1.479,0,0,1-.078-.131,3.909,3.909,0,0,1-.336-.6,10.485,10.485,0,0,1-.818-3.366,9.437,9.437,0,0,1-.344-10.452Z" transform="translate(-336.396 -147.58)" fill="#e6e6e6"/>
    <path id="Path_334" data-name="Path 334" d="M625.861,314.651c-.16-.03-.319-.069-.479-.1-2.748-.572-5.5-1.134-8.236-1.716l-.252-7.288-3.32,6.529c-7.572,2.949-14.656,1.282-21.321-2.4a58.208,58.208,0,0,1-6.387-4.132c-.677-12.326,3.57-20.217,11.471-19.389.289.03.5-.316.748-.464a.008.008,0,0,0,.006,0,.011.011,0,0,0,0-.007c.429-.237.866-.464,1.3-.671,6.983-3.2,14.914-1.4,20.371,4.635C625.146,295.676,627.567,305.627,625.861,314.651Z" transform="translate(-344.586 -141.16)" fill="#2f2e41"/>
    <path id="Path_335" data-name="Path 335" d="M513.749,276.848a3.481,3.481,0,0,0,2.7,2.729c2.369,3.437,5.082,7.076,8.794,7.763a3.708,3.708,0,0,0,3.092-.627,1.8,1.8,0,0,0,.31-.293c.879-.981.947-2.952-.095-3.69,4.669,2.173,7.4,8.087,8.088,13.919s-.267,11.726-.9,17.568-.9,11.978,1.051,17.407a19.769,19.769,0,0,0,13.4,12.464,13.793,13.793,0,0,0,1.559.313,20.674,20.674,0,0,1,2.567-7.743,19.457,19.457,0,0,0,.611,8.006,24.092,24.092,0,0,0,12.464-3.781c5.246-3.245,9.613-8.2,13.187-13.747-6.159,5.125-14.669,7.046-21.37,2.992-5.995-3.639-9.535-11.281-11.086-18.984s4.966-17.162,4.26-25.037-8.808-14.558-13.235-20.532c-2.825-3.811-6.994-6.631-11.292-6.156a9.96,9.96,0,0,0-7.314,4.965,13.612,13.612,0,0,0-1.575,9.742,2.9,2.9,0,0,0-5.168.728A3.486,3.486,0,0,0,513.749,276.848Z" transform="translate(-243.952 -138.543)" fill="#2f2e41"/>
    <path id="Path_336" data-name="Path 336" d="M615.182,314.722s-5.219-22.861-27.59-28.137c-.025-.01-.109-.049-.219-.108-.067-.049-.151-.1-.235-.148.252-.168.5-.316.748-.464a.008.008,0,0,0,.006,0,.011.011,0,0,0,0-.007c.219-.237.437-.473.664-.7l.639.03S611.644,281.013,615.182,314.722Z" transform="translate(-334.386 -141.33)" fill="#fd6584"/>
    <path id="Path_337" data-name="Path 337" d="M637.427,440.3a3.082,3.082,0,0,1,2.463-2.19,6.127,6.127,0,0,1,3.2.543,24.6,24.6,0,0,1,10.392,7.929l-.048,2.314a12.606,12.606,0,0,1-.155,13.9,5.824,5.824,0,0,1-3.022,2.3,3.1,3.1,0,0,1-3.331-1.179c-1.191-1.7-.616-4.266.26-6.214a21.744,21.744,0,0,1,6.5-8.363,27.644,27.644,0,0,1-13.142-3.833,7.533,7.533,0,0,1-2.4-1.98A3.937,3.937,0,0,1,637.427,440.3Z" transform="translate(-412.775 -157.96)" fill="#2f2e41"/>
    <path id="Path_338" data-name="Path 338" d="M773.926,591.315l8.525.4a36.806,36.806,0,0,1,3.313,15.05c-5.072-7.208-14.787-6.248-21.588-11.116a19.994,19.994,0,0,1-7.711-14.206L753.28,575.4c7.982-1.728,16.209.733,22.513,6.734a30.045,30.045,0,0,1,4.6,5.754A69.325,69.325,0,0,0,773.926,591.315Z" transform="translate(-631.158 -172.823)" fill="#f2f2f2"/>
    <path id="Path_339" data-name="Path 339" d="M717.926,713.315l8.525.4a36.805,36.805,0,0,1,3.313,15.05c-5.072-7.208-14.787-6.248-21.588-11.115a20,20,0,0,1-7.711-14.206L697.28,697.4c7.982-1.728,16.209.733,22.513,6.734a30.032,30.032,0,0,1,4.6,5.754A69.32,69.32,0,0,0,717.926,713.315Z" transform="translate(-532.625 -186.079)" fill="#f2f2f2"/>
    <path id="Path_340" data-name="Path 340" d="M450.376,541.5l7.226-5.324a29.424,29.424,0,0,1,9.977,10.224c-7.655-2.587-15.21,4.645-23.165,5.135a15.521,15.521,0,0,1-13.2-6.612l-5.534-2.872c5.756-6.716,13.729-10.138,21.819-9.364a23.473,23.473,0,0,1,6.566,1.7C452.088,537.752,450.376,541.5,450.376,541.5Z" transform="translate(-64.151 -168.229)" fill="#f2f2f2"/>
    <path id="Path_341" data-name="Path 341" d="M704.088,280.462c.17-1.34-1.069-2.295-1.532-3.535a6.591,6.591,0,0,1,0-3.4,8.761,8.761,0,0,1,1.5-4.183,5.677,5.677,0,0,1,3.349-1.648,25.074,25.074,0,0,1,9.071-.188l-2.286.163a10.366,10.366,0,0,1,4.264.581,4.787,4.787,0,0,1,2.861,3.5c.283,1.656-.682,3.6-2.116,3.737a2.806,2.806,0,0,1,3.274,2.511,3.276,3.276,0,0,1-2.14,3.842c.33,1.047,1.312,1.548,2.152,2.07a2.8,2.8,0,0,1,1.583,2.521c-.188,1.459-1.849,1.759-3.1,1.694l-13.674-.7a6.409,6.409,0,0,1-3.411-.831,3.166,3.166,0,0,1-1.252-3.477C702.992,282.137,703.954,281.514,704.088,280.462Z" transform="translate(-530.785 -139.392)" fill="#3f3d56"/>
    <path id="Path_342" data-name="Path 342" d="M565.261,442.3c1.879,9.689,2.772,20.673-2.24,29.343a17.766,17.766,0,0,1-8.885,7.9,21.632,21.632,0,0,1-11.322.816c-8.549-1.39-16.146-6.616-24.554-8.645-3.71-.9-7.648-1.191-11.22.532-2.676,1.291-5.495,3.887-5.508,7.59-.013,3.8,2.8,6.326,5.6,7.495,3.734,1.56,7.615.956,11.489.76,4.172-.212,8.425.231,11.891,3.229a24.4,24.4,0,0,1,6.609,10.515c1.742,4.961,2.449,10.3,3.563,15.472a76.69,76.69,0,0,0,4.2,13.482,69.636,69.636,0,0,0,14.541,22.118c2.992,3.022,6.627,6.1,10.714,6.377,3.152.214,6.983-1.341,8.2-5.087a7.893,7.893,0,0,0-2.914-8.672c-2.7-1.6-5.643.682-6.515,3.814a5.614,5.614,0,0,0,.433,4.4c.819,1.433-1.154,2.773-1.967,1.35-1.889-3.305-.9-7.751,1.412-10.4a5.934,5.934,0,0,1,8.734-.764,11.128,11.128,0,0,1,3.154,10.464,9.965,9.965,0,0,1-7.858,7.381c-4.249.8-8.338-1.159-11.768-3.99a57.146,57.146,0,0,1-9.319-10.1,76.836,76.836,0,0,1-12.34-25.893c-2.508-9.431-2.69-21.891-10.143-28.26-3.835-3.278-8.533-2.914-13.03-2.613-3.969.266-7.841.217-11.482-1.891a10.649,10.649,0,0,1-5.482-9.049,11.113,11.113,0,0,1,5.4-9.34c7.784-4.975,17.131-.963,24.777,2.361,7.69,3.342,16.469,7.265,24.642,3.748a16.674,16.674,0,0,0,8.444-9.469c1.979-4.925,2.26-10.513,1.8-15.858a79.983,79.983,0,0,0-1.253-8.406c-.325-1.675,1.871-2.391,2.2-.711Z" transform="translate(-233.375 -158.316)" fill="#3f3d56"/>
    <path id="Path_343" data-name="Path 343" d="M572.93,491.152a10.241,10.241,0,0,0,1.513-7.433,9.033,9.033,0,0,0-3.885-6.133l11.582-40.239L572.682,394.7l-15.25,8.091,9.411,32.165L559.8,481.777c-1.629,4.185-.334,9.138,3.015,11.53s7.693,1.466,10.112-2.155Z" transform="translate(-278.781 -153.248)" fill="#ffb6b6"/>
    <path id="Path_344" data-name="Path 344" d="M566.95,355.257s3.582-2.257,6.073,7.419c1.994,7.747,15.566,49.809,15.811,61.041,2.7.658,4.683,3.381,4.811,6.617l-19.711,3.2c-3.459-3.394-1.725-6.282-.4-7.656l-6.714-13.345L552.79,376.505l11.546-19.67Z" transform="translate(-286.761 -148.937)" fill="#e6e6e6"/>
    <path id="Path_345" data-name="Path 345" d="M468.571,407.848a97.453,97.453,0,0,0,10.071,24.815q1.641,2.808,3.448,5.473a29.356,29.356,0,0,1,3.38-5.544c4.6-5.927,10.755-9.8,16.732-13.691s12.046-8.058,16.269-14.36a27.344,27.344,0,0,0,3.98-9.618c.957-4.751.592-9.707-1.77-13.673a14.142,14.142,0,0,0-16.094-6.132c-5.826,1.667-10.7,6.418-14.484,11.873,1.238-6.7-4.785-13.174-10.611-12.586s-10.5,6.569-12.046,13.183S466.9,401.27,468.571,407.848Z" transform="translate(-150.652 -151.038)" fill="#f50057"/>
    <path id="Path_346" data-name="Path 346" d="M662.776,136.8c6.238,1.2,11.786,5.34,15.349,11.466A30.049,30.049,0,0,1,681.1,169.82a28.311,28.311,0,0,1-5.31,11.278c-1,1.262-2.61-.632-1.611-1.891a27.341,27.341,0,0,0,5.332-19.12,24.438,24.438,0,0,0-8.528-16.571,19.12,19.12,0,0,0-8.809-4.135c-1.445-.255-.831-2.832.606-2.579Z" transform="translate(-457.468 -125.224)" fill="#3f3d56"/>
    <g id="Group_89" data-name="Group 89" transform="translate(127.149 53.698)" opacity="0.2">
      <path id="Path_347" data-name="Path 347" d="M711.851,184.121a32.925,32.925,0,0,0,3.41,4.1,257.814,257.814,0,0,1,46.172,63.366l4.155,8.147.281.562A12.735,12.735,0,0,0,768.4,257.2c2.658-4.537,2.674-10.5,2.02-15.955-4.093-33.888-29.429-58.6-58.567-57.126Z" transform="translate(-711.851 -184.059)"/>
    </g>
    <g id="Group_90" data-name="Group 90" transform="translate(327.991 243.885)" opacity="0.2">
      <path id="Path_348" data-name="Path 348" d="M467.321,435.169q1.641,2.808,3.448,5.473a29.356,29.356,0,0,1,3.38-5.544c4.6-5.927,10.755-9.8,16.732-13.691s12.046-8.058,16.269-14.36a27.343,27.343,0,0,0,3.98-9.618c-13.437,2.186-25.785,9.873-34.862,21.7a67.739,67.739,0,0,0-8.947,16.035Z" transform="translate(-467.321 -397.429)"/>
    </g>
    <ellipse id="Ellipse_44" data-name="Ellipse 44" cx="3.038" cy="3.565" rx="3.038" ry="3.565" transform="translate(179.313 122.609)" fill="#3f3d56"/>
  </g>
</svg>
