<svg xmlns="http://www.w3.org/2000/svg" width="1017.852" height="730.849" viewBox="0 0 1017.852 730.849">
  <g id="undraw_dreamer_re_9tua" transform="translate(0.021 0)" opacity="0.5">
    <path id="Path_102" data-name="Path 102" d="M430.18,804.715q-46.6,0-93.07-1.449c-44.262-1.381-90.032-2.808-132.573-23.3-29.759-14.333-56.116-37.329-76.219-66.5a207.837,207.837,0,0,1-29.211-63.6,228.675,228.675,0,0,1-6.448-33.286,226.386,226.386,0,0,1,7.545-90.493,202.118,202.118,0,0,1,16.974-40.4c31.023-55.793,87.608-93.246,155.245-102.754a9.019,9.019,0,0,1,1.685-.031c.3.014.607.029.917.018l.4-.11a21.861,21.861,0,0,1,3.133-.7c104.314-13.487,214.59,13.8,318.9,78.914,80.65,50.351,187.534,77.464,326.76,82.889l1.977.09c38.757,1.934,76.247,15.81,108.421,40.133a203.69,203.69,0,0,1,68.953,92.624c1.642,4.461,3.146,9.1,4.473,13.8,2.513,8.883-.4,17.858-7.992,24.69v.009l-.347.31c-.834.721-1.713,1.412-2.611,2.056l-1.056.756c-8.9,6.365-15.925,11.393-24.335,15.3a82.138,82.138,0,0,1-17.754,5.821c-33.928,7.184-68.382,13.844-102.405,19.8-66.076,11.571-133.892,21.116-201.566,28.369A3003.651,3003.651,0,0,1,430.18,804.715ZM273.315,384.87a4.643,4.643,0,0,0-.621.037c-67,9.419-123.054,46.5-153.77,101.745a200.083,200.083,0,0,0-16.806,40,224.378,224.378,0,0,0-7.475,89.687,226.667,226.667,0,0,0,6.392,32.994,205.837,205.837,0,0,0,28.928,63c19.907,28.889,45.994,51.654,75.441,65.836,42.16,20.308,87.714,21.729,131.768,23.1a3001.529,3001.529,0,0,0,412.582-15.595c67.63-7.249,135.4-16.787,201.435-28.35,34-5.948,68.431-12.6,102.335-19.783a80.092,80.092,0,0,0,17.326-5.679c8.241-3.826,15.2-8.807,24.014-15.111l1.056-.755c.772-.554,1.53-1.146,2.255-1.761l.208-.189c7.242-6.339,10.058-14.7,7.726-22.944h0c-1.312-4.646-2.8-9.24-4.426-13.655C1074.4,602.7,1003.84,549.873,926.091,545.995l-1.966-.09c-63.6-2.479-119.249-9.344-170.128-20.99-60.739-13.9-113.765-34.831-157.606-62.2-103.909-64.862-213.724-92.049-317.583-78.626a20.03,20.03,0,0,0-2.854.643l-.717.174c-.413.022-.818.005-1.223-.013C273.775,384.881,273.542,384.87,273.315,384.87Z" transform="translate(-91.085 -73.866)" fill="#f0f0f0"/>
    <path id="Path_103" data-name="Path 103" d="M1099.04,714.8v.01c-.81.7-1.66,1.37-2.54,2-14.68,10.51-24.71,17.88-42.77,21.71q-51,10.8-102.37,19.79-100.215,17.55-201.5,28.36a2993.957,2993.957,0,0,1-412.719,15.6c-45.88-1.43-90.13-2.95-132.171-23.2-30.73-14.8-56.55-38.19-75.83-66.17-19.55-28.37-31.44-61.94-35.49-96.44a99.086,99.086,0,0,1,29.97-7.8c35.88-3.42,71.19,9.72,103.82,25.01s64.69,33.14,100.03,40.19c52.08,10.39,105.84-3.74,155.77-21.83s99.08-40.43,151.74-47.26c70.63-9.17,141.5,10.24,210.08,29.46q109.575,30.705,219.16,61.42c10.44,2.92,21.27,6.05,29.41,13.21A36.169,36.169,0,0,1,1099.04,714.8Z" transform="translate(-91.085 -73.866)" fill="#e6e6e6"/>
    <path id="Path_104" data-name="Path 104" d="M1099.04,714.8v.01c-.81.7-1.66,1.37-2.54,2-9.2,6.58-16.57,11.94-25.23,15.96q-44.655,4.395-89.43,7.61-115.245,8.265-230.94,8.79c-156.47.8-320.98,5.7-457.98-70.3-45.585-25.288-111.62,26.57-156.78-1.16a208.579,208.579,0,0,1-36.07-28.11,227.108,227.108,0,0,1-6.42-33.14,224.722,224.722,0,0,1,7.51-90.09,200.406,200.406,0,0,1,16.89-40.2c20.98,7.53,41.1,18.37,60.25,29.85,35.12,21.03,69.27,44.91,108.38,56.95,57.65,17.75,120.02,7.99,178.52-6.69s116.61-34.24,176.9-35.89c80.86-2.21,158.69,27.9,233.96,57.53q113.265,44.595,226.56,89.18,2.49,6.765,4.45,13.73C1109.74,700.266,1105.87,708.816,1099.04,714.8Z" transform="translate(-91.085 -73.866)" fill="#f2f2f2"/>
    <path id="Path_105" data-name="Path 105" d="M362.808,330.892c-11.373-7.667-10.26-24.441,1.767-31.035q.367-.2.72-.416l1.808-8.66c3.548,3.685,10.524,2.99,13.275-1.323a225.446,225.446,0,0,0-37.412-56.066,20.2,20.2,0,0,1-.29-26.8q.087-.1.173-.2A95.659,95.659,0,0,0,367,194.189c-25.49-40.954-74.1-73.489-85.649-120.323-34.757,37.325-38.658,50.47-73.415,87.795,0,0-32.911,29.7-40.014,45.657,1.745,1.833,17.371,6.233,17.972,9.838,11.917.955,32.562-12.107,32.562-12.107S173.4,253.09,159.716,282.681c-1.232,2.665-2.4,5.707-1.37,8.456.824,2.194,3.78,3.459,5.684,2.587a24.374,24.374,0,0,0-5.377,7.7,20.936,20.936,0,0,0,25.828-2.6L178.765,309.5l0,.008a15.566,15.566,0,0,1,5.771,26.19c-11.825,11-22.63,22.558-26.59,30.171-3.725,7.162,34.519,15.8,43.121,15.441s16.642-4.134,24.412-7.843a18.06,18.06,0,0,0,1.947,10.276,32.862,32.862,0,0,0,25.169-4.069c-.343,7.085,8.594,11,14.8,8.991-3.1,48.99-.832,117.783,2.144,189.2h7.381V391.492a22.259,22.259,0,0,0,6.234,2.072c15.1,2.681,33.326,4.311,43.153-7.466,11.31,11.4,32.037,11.188,43.282-.177-1.107,1.961.587,5.26,3.093,5.78,2.953.613,5.826-1.142,8.333-2.818l34.049-22.763Z" transform="translate(-91.085 -73.866)" fill="#e6e6e6"/>
    <circle id="Ellipse_10" data-name="Ellipse 10" cx="35.64" cy="35.64" r="35.64" transform="translate(576.783 162.948)" fill="#f2f2f2"/>
    <path id="Path_106" data-name="Path 106" d="M783.278,255.579c-2.061-6.9-7.885-11.412-14.922-12.4-.077-.011-.151,0-.228,0a2.221,2.221,0,0,0-.3-.07,44.461,44.461,0,0,0-28.616,6.229c-8.25,5.15-17.86,7.479-27.578,7.858l-.172.008a17.61,17.61,0,0,0-15.751,12.7,2.066,2.066,0,0,0,.92,2.261,9.031,9.031,0,0,0,3.724,1.89q4.44.941,8.911,1.723,8.725,1.527,17.542,2.469a260.845,260.845,0,0,0,35.93,1.358c3.995-.125,7.847-.257,11.507-2.02a17.121,17.121,0,0,0,6.6-5.76,19.423,19.423,0,0,0,2.436-16.238Z" transform="translate(-91.085 -73.866)" fill="#e6e6e6"/>
    <path id="Path_107" data-name="Path 107" d="M709.2,303.1c-2.062-6.9-7.885-11.412-14.922-12.4-.078-.011-.151,0-.228,0a2.221,2.221,0,0,0-.3-.07,44.462,44.462,0,0,0-28.616,6.229c-8.249,5.15-17.86,7.48-27.577,7.858l-.173.008a17.61,17.61,0,0,0-15.751,12.7,2.066,2.066,0,0,0,.92,2.261,9.031,9.031,0,0,0,3.723,1.89q4.44.941,8.911,1.723,8.725,1.527,17.542,2.469a260.851,260.851,0,0,0,35.93,1.358c3.994-.124,7.847-.257,11.507-2.02a17.123,17.123,0,0,0,6.6-5.76A19.424,19.424,0,0,0,709.2,303.1Z" transform="translate(-91.085 -73.866)" fill="#e6e6e6"/>
    <path id="Path_108" data-name="Path 108" d="M1010.81,451.892c-11.373-7.667-10.26-24.441,1.767-31.035q.367-.2.72-.416l1.808-8.66c3.548,3.685,10.524,2.99,13.275-1.323a225.447,225.447,0,0,0-37.412-56.066,20.2,20.2,0,0,1-.29-26.8q.087-.1.173-.2a95.658,95.658,0,0,0,24.15-12.2c-25.49-40.954-74.1-73.489-85.649-120.323-34.757,37.325-38.658,50.47-73.415,87.795,0,0-32.911,29.7-40.014,45.657,1.745,1.833,17.371,6.233,17.972,9.838,11.917.955,32.562-12.107,32.562-12.107s-45.062,48.041-58.743,77.632c-1.232,2.665-2.4,5.707-1.37,8.456.824,2.194,3.78,3.459,5.684,2.587a24.374,24.374,0,0,0-5.377,7.7,20.937,20.937,0,0,0,25.828-2.6L826.762,430.5l0,.008a15.567,15.567,0,0,1,5.771,26.19c-11.825,11-22.63,22.558-26.59,30.171-3.725,7.162,34.519,15.8,43.121,15.441s16.642-4.134,24.412-7.843a18.06,18.06,0,0,0,1.95,10.276,32.862,32.862,0,0,0,25.169-4.069c-.343,7.085,8.594,11,14.8,8.99-3.1,48.99-.832,117.783,2.144,189.2h7.381V512.492a22.257,22.257,0,0,0,6.234,2.072c15.1,2.681,33.326,4.311,43.153-7.466,11.31,11.4,32.037,11.188,43.282-.177-1.107,1.961.587,5.26,3.093,5.78,2.953.613,5.826-1.142,8.333-2.818l34.049-22.763C1049.06,477.678,1029.16,464.266,1010.81,451.892Z" transform="translate(-468.085 -91.866)" fill="#e6e6e6"/>
    <path id="Path_109" data-name="Path 109" d="M154.055,641.883a3.613,3.613,0,0,0,2.619-6.263l-.248-.984.1-.236a9.7,9.7,0,0,1,17.9.067c2.927,7.05,6.654,14.113,7.572,21.568a28.705,28.705,0,0,1-.5,9.872,115.087,115.087,0,0,0,10.469-47.8,111.08,111.08,0,0,0-.689-12.392q-.571-5.06-1.584-10.047A116.419,116.419,0,0,0,166.6,546.327a30.982,30.982,0,0,1-12.886-13.369,23.634,23.634,0,0,1-2.149-6.458c.627.082,1.265.134,1.892.175l.6.031.074,0a3.58,3.58,0,0,0,2.94-5.832l-.813-1c-.411-.514-.833-1.018-1.244-1.532a1.782,1.782,0,0,1-.134-.154c-.473-.586-.946-1.162-1.419-1.748a10.351,10.351,0,0,1,3.394-3.28c4.741-2.777,11.281-.854,14.706,3.435s4.083,10.3,2.89,15.662a41.486,41.486,0,0,1-5.738,12.793c.257.329.525.648.782.977A117.173,117.173,0,0,1,181.72,565.4a48.709,48.709,0,0,1,2.908-22.625c2.783-6.715,8-12.37,12.6-18.175,5.519-6.973,16.835-3.93,17.807,4.909q.014.128.028.257-1.024.578-2,1.226a4.9,4.9,0,0,0,1.976,8.919l.1.016a48.764,48.764,0,0,1-1.285,7.291,50.21,50.21,0,0,1-25,31.468c-.4.206-.792.411-1.193.607a116.537,116.537,0,0,1,4.4,15.888,117.6,117.6,0,0,1,2.036,14.408,113.435,113.435,0,0,1-.082,18.315l.031-.216a29.974,29.974,0,0,1,10.232-17.308c7.874-6.469,19-8.851,27.494-14.05a5.625,5.625,0,0,1,8.616,5.473q-.017.114-.035.227a32.926,32.926,0,0,0-3.692,1.779q-1.024.578-2,1.226a4.9,4.9,0,0,0,1.976,8.919l.1.015.206.031a48.809,48.809,0,0,1-8.978,14.058,50.255,50.255,0,0,1-36.446,15.991h-.01a119.564,119.564,0,0,1-8.032,23.447H154.774c-.1-.319-.2-.648-.288-.967a32.6,32.6,0,0,0,7.939-.473c-2.129-2.612-4.257-5.245-6.386-7.857a1.788,1.788,0,0,1-.134-.154c-1.08-1.337-2.17-2.664-3.25-4v0a47.752,47.752,0,0,1,1.4-12.164Z" transform="translate(-91.085 -73.866)" fill="#e6e6e6"/>
    <path id="Path_110" data-name="Path 110" d="M1009.05,669.883a3.613,3.613,0,0,0,2.619-6.263l-.248-.984.1-.236a9.7,9.7,0,0,1,17.9.067c2.927,7.051,6.654,14.113,7.572,21.568a28.707,28.707,0,0,1-.5,9.872,115.087,115.087,0,0,0,10.474-47.8,111.1,111.1,0,0,0-.689-12.392q-.571-5.06-1.584-10.047a116.419,116.419,0,0,0-23.087-49.341,30.983,30.983,0,0,1-12.885-13.369,23.632,23.632,0,0,1-2.149-6.458c.627.082,1.265.134,1.892.175l.6.031.074,0a3.58,3.58,0,0,0,2.94-5.832l-.813-1c-.411-.514-.833-1.018-1.244-1.532a1.757,1.757,0,0,1-.134-.154c-.473-.586-.946-1.162-1.419-1.748a10.351,10.351,0,0,1,3.394-3.281c4.741-2.777,11.281-.854,14.706,3.435s4.083,10.3,2.89,15.662a41.486,41.486,0,0,1-5.738,12.793c.257.329.525.648.782.977a117.175,117.175,0,0,1,12.23,19.375,48.71,48.71,0,0,1,2.908-22.625c2.783-6.715,8-12.37,12.595-18.175,5.519-6.973,16.835-3.93,17.807,4.909q.014.128.028.257-1.024.578-2,1.226a4.9,4.9,0,0,0,1.976,8.919l.1.015a48.784,48.784,0,0,1-1.285,7.291,50.21,50.21,0,0,1-25,31.468c-.4.206-.792.411-1.193.607a119.592,119.592,0,0,1,6.438,30.3,113.442,113.442,0,0,1-.083,18.315l.031-.216a29.974,29.974,0,0,1,10.232-17.308c7.874-6.469,19-8.851,27.494-14.05a5.625,5.625,0,0,1,8.616,5.473q-.017.114-.035.227a32.914,32.914,0,0,0-3.692,1.779q-1.024.578-2,1.226a4.9,4.9,0,0,0,1.976,8.919l.1.015.206.031a48.811,48.811,0,0,1-8.978,14.058,50.254,50.254,0,0,1-36.446,15.991h-.01a119.563,119.563,0,0,1-8.032,23.447h-28.692c-.1-.319-.2-.648-.288-.967a32.608,32.608,0,0,0,7.939-.473c-2.129-2.612-4.257-5.245-6.386-7.857a1.775,1.775,0,0,1-.134-.154c-1.08-1.337-2.17-2.663-3.25-4v0a47.746,47.746,0,0,1,1.4-12.164Z" transform="translate(-91.085 -73.866)" fill="#e6e6e6"/>
    <path id="Path_111" data-name="Path 111" d="M668.055,586.883a3.613,3.613,0,0,0,2.619-6.263l-.248-.984.1-.236a9.7,9.7,0,0,1,17.9.067c2.927,7.051,6.654,14.113,7.572,21.568a28.7,28.7,0,0,1-.5,9.872,115.087,115.087,0,0,0,10.469-47.8,111.089,111.089,0,0,0-.689-12.392q-.571-5.06-1.584-10.047A116.42,116.42,0,0,0,680.6,491.327a30.983,30.983,0,0,1-12.886-13.369,23.632,23.632,0,0,1-2.149-6.458c.627.082,1.265.134,1.892.175l.6.031.074,0a3.58,3.58,0,0,0,2.94-5.832l-.813-1c-.411-.514-.833-1.018-1.244-1.532a1.776,1.776,0,0,1-.134-.154c-.473-.586-.946-1.162-1.419-1.748a10.352,10.352,0,0,1,3.394-3.28c4.741-2.777,11.281-.854,14.706,3.435s4.083,10.3,2.89,15.662a41.486,41.486,0,0,1-5.738,12.793c.257.329.525.648.782.977A117.172,117.172,0,0,1,695.72,510.4a48.709,48.709,0,0,1,2.908-22.625c2.783-6.715,8-12.37,12.595-18.175,5.519-6.973,16.835-3.93,17.807,4.909q.014.128.028.257-1.024.577-2,1.226a4.9,4.9,0,0,0,1.976,8.919l.1.015a48.769,48.769,0,0,1-1.285,7.291,50.21,50.21,0,0,1-25,31.468c-.4.206-.792.411-1.193.607a119.6,119.6,0,0,1,6.438,30.3,113.435,113.435,0,0,1-.082,18.315l.031-.216a29.974,29.974,0,0,1,10.232-17.308c7.874-6.469,19-8.851,27.494-14.05a5.625,5.625,0,0,1,8.616,5.473q-.017.114-.035.227a32.927,32.927,0,0,0-3.692,1.779q-1.024.578-2,1.226a4.9,4.9,0,0,0,1.976,8.919l.1.015.206.031a48.808,48.808,0,0,1-8.978,14.058,50.255,50.255,0,0,1-36.446,15.991h-.01a119.567,119.567,0,0,1-8.032,23.447H668.774c-.1-.319-.2-.648-.288-.967a32.6,32.6,0,0,0,7.939-.473c-2.129-2.612-4.257-5.245-6.386-7.857a1.784,1.784,0,0,1-.134-.154c-1.08-1.337-2.17-2.664-3.25-4v0a47.749,47.749,0,0,1,1.4-12.164Z" transform="translate(-91.085 -73.866)" fill="#e6e6e6"/>
    <path id="Path_117" data-name="Path 117" d="M319.9,699.669l-1.08,1.829.771.122Z" fill="#2f2e41"/>
  </g>
</svg>
