<svg xmlns="http://www.w3.org/2000/svg" width="852.521" height="679.17" viewBox="0 0 852.521 679.17">
  <g id="undraw_country_side_re_0dou" opacity="0.5">
    <path id="Path_349" data-name="Path 349" d="M612.36,209.223C604.691,196.539,595.6,183,581.37,178.854c-16.482-4.8-33.413,4.732-47.775,14.135A1392.212,1392.212,0,0,0,409.7,284.271l.043.493,92.451-6.376c22.265-1.535,45.3-3.283,64.972-13.816,7.466-4,14.745-9.336,23.206-9.708,10.512-.462,19.677,6.879,26.88,14.549,42.607,45.371,54.937,114.754,102.738,154.616A1517,1517,0,0,0,612.36,209.223Z" transform="translate(-173.736 -110.414)" fill="#f2f2f2"/>
    <path id="Path_350" data-name="Path 350" d="M874.261,594.051c-4.712-5.95-6.637-7.343-11.285-13.348q-56.764-73.416-106.708-151.792-33.923-53.23-64.483-108.5-14.548-26.278-28.3-52.969-10.67-20.7-20.865-41.638c-1.944-3.988-3.832-7.994-5.711-12.009-4.428-9.442-8.773-18.93-13.439-28.244-5.317-10.616-11.789-21.745-21.553-28.877a29.405,29.405,0,0,0-15.318-5.895c-7.948-.513-15.282,2.769-22.176,6.353-50.439,26.3-97.659,59.276-140.37,96.8A730.781,730.781,0,0,0,310.013,380.517c-1.008,1.439-3.392.064-2.374-1.384q6.009-8.5,12.257-16.813A734.814,734.814,0,0,1,507.5,187.334q18.248-11.826,37.183-22.542c6.362-3.6,12.752-7.16,19.251-10.5,6.371-3.273,13.137-6.215,20.416-6.325,24.77-.385,37.6,27.667,46.405,46.542q4.153,8.911,8.406,17.766,16.075,33.621,33.387,66.628,10.684,20.379,21.837,40.52,34.707,62.718,73.779,122.9C802.665,495.466,836.9,542.412,876.2,592.108,877.286,593.483,875.352,595.445,874.261,594.051Z" transform="translate(-173.736 -110.414)" fill="#e4e4e4"/>
    <path id="Path_351" data-name="Path 351" d="M421.606,240.074c-1.439-1.6-2.869-3.209-4.318-4.813-11.422-12.633-23.679-25.118-39.364-32.361A57.11,57.11,0,0,0,354,197.354c-8.562.028-16.932,2.273-24.843,5.418-3.74,1.494-7.4,3.19-11,5-4.116,2.072-8.159,4.281-12.183,6.509q-11.331,6.27-22.368,13.091-21.961,13.572-42.546,29.216-10.671,8.113-20.9,16.758-9.516,8.031-18.646,16.492c-1.3,1.2-3.245-.743-1.944-1.943,1.6-1.494,3.227-2.979,4.85-4.446q6.875-6.215,13.971-12.193,12.939-10.918,26.549-20.993,21.163-15.676,43.783-29.225,11.3-6.765,22.918-12.963c2.338-1.247,4.7-2.466,7.1-3.621a113.116,113.116,0,0,1,16.868-6.866,60.006,60.006,0,0,1,25.476-2.5,66.327,66.327,0,0,1,23.505,8.131c15.4,8.608,27.346,21.919,38.97,34.909C424.724,239.441,422.789,241.394,421.606,240.074Z" transform="translate(-173.736 -110.414)" fill="#e4e4e4"/>
    <path id="Path_352" data-name="Path 352" d="M737.167,370.981l36.9-13.5,18.323-6.7c5.968-2.183,11.921-4.667,18.09-6.23a28.539,28.539,0,0,1,16.374.209,37.738,37.738,0,0,1,12.771,7.917A103.634,103.634,0,0,1,850.1,363.862c3.989,4.794,7.92,9.639,11.868,14.467q24.441,29.891,48.563,60.041t47.92,60.556q23.857,30.48,47.385,61.216,2.882,3.765,5.76,7.534c1.06,1.388,3.449.02,2.375-1.388q-23.7-31.044-47.735-61.835-24.092-30.864-48.516-61.466T868.545,382.05q-6.167-7.558-12.354-15.1c-3.48-4.241-6.92-8.527-10.736-12.474-7.005-7.245-15.758-13.648-26.234-13.822-6.16-.1-12.121,1.852-17.844,3.923-6.17,2.232-12.325,4.506-18.486,6.759L745.726,364.93l-9.291,3.4c-1.649.6-.937,3.262.731,2.652Z" transform="translate(-173.736 -110.414)" fill="#e4e4e4"/>
    <path id="Path_353" data-name="Path 353" d="M373.068,218.8c-18.754-9.639-42.771-7.751-60.005,4.291a855.855,855.855,0,0,1,97.371,22.726C397.151,238.029,386.76,225.833,373.068,218.8Z" transform="translate(-173.736 -110.414)" fill="#f2f2f2"/>
    <path id="Path_354" data-name="Path 354" d="M312.878,223.054l-3.61,2.935c1.221-1.027,2.491-1.99,3.8-2.9C313,223.076,312.94,223.064,312.878,223.054Z" transform="translate(-173.736 -110.414)" fill="#f2f2f2"/>
    <path id="Path_355" data-name="Path 355" d="M838.24,371.115c-3.633-4.422-7.56-9.052-12.994-10.848l-5.073.2A575.436,575.436,0,0,0,973.44,535.688Q905.839,453.4,838.24,371.115Z" transform="translate(-173.736 -110.414)" fill="#f2f2f2"/>
    <path id="Path_356" data-name="Path 356" d="M361.3,597.506c-2.215,2.989-4.571,5.878-7.068,8.639-21.73,3.671-41.888,7.639-60.355,11.673q-8.011,1.747-15.581,3.51l.117-.361a73.255,73.255,0,0,1,5.42-38.466c.324-.743.658-1.486,1-2.218a71.836,71.836,0,0,1,13.814-19.965c8.677-8.8,19.523-15.393,30.631-21.586,20.794-11.584,42.47-21.815,52.426-42.688A123.57,123.57,0,0,1,361.3,597.506Z" transform="translate(-173.736 -110.414)" fill="#e6e6e6"/>
    <path id="Path_357" data-name="Path 357" d="M248.512,541.864a143.157,143.157,0,0,0,24.572-33.092,146.015,146.015,0,0,0,14.231-38.49,140.26,140.26,0,0,0,2.663-41.535,145.35,145.35,0,0,0-30.757-77.578q-1.613-2.034-3.3-4.006c-1.256-1.47-3.35.679-2.1,2.139a140.443,140.443,0,0,1-7.441,190.459c-1.366,1.369.774,3.472,2.139,2.1Z" transform="translate(-173.736 -110.414)" fill="#ccc"/>
    <path id="Path_358" data-name="Path 358" d="M260.451,353.707a36.338,36.338,0,0,1-3.576-1.525c-.058.091-.114.183-.172.274Z" transform="translate(-173.736 -110.414)" fill="#e6e6e6"/>
    <path id="Path_359" data-name="Path 359" d="M261.452,315.109c-4.237-5.22-12.274-7.509-18.045-4.06-3.87,2.312-6.161,6.763-6.564,11.253a24.518,24.518,0,0,0,2.921,13.026,37.9,37.9,0,0,0,17.113,16.853c3.555-5.584,6.884-11.453,8.268-17.922C266.549,327.685,265.689,320.329,261.452,315.109Z" transform="translate(-173.736 -110.414)" fill="#ccc"/>
    <path id="Path_360" data-name="Path 360" d="M313.532,352.176a61.394,61.394,0,0,0-9.951-50.433c-.913,17.6-19.255,28.958-25.869,45.3a36.638,36.638,0,0,0,2.26,31.677l1.125,13.342a61.394,61.394,0,0,0,32.435-39.881Z" transform="translate(-173.736 -110.414)" fill="#ccc"/>
    <path id="Path_361" data-name="Path 361" d="M346.6,401.828c-9.094,15.1-30.622,16.48-44.151,27.777a36.638,36.638,0,0,0-12.923,29.009l-5.29,12.3A60.5,60.5,0,0,0,346.6,401.828Z" transform="translate(-173.736 -110.414)" fill="#ccc"/>
    <path id="Path_362" data-name="Path 362" d="M261.971,435.387a60.5,60.5,0,0,0-.885,93.066l4.435-12.633a36.638,36.638,0,0,0,10.132-30.1C273.348,468.249,258.441,452.655,261.971,435.387Z" transform="translate(-173.736 -110.414)" fill="#ccc"/>
    <path id="Path_363" data-name="Path 363" d="M262.968,605.936c-3.63,10.821-12.4,19.284-22.414,24.828q-.791.442-1.583.853c-.438.234-.886.457-1.334.671-3.613.81-7.258,1.5-10.882,2.271-.01,0-.02.01-.03.01q-8.111,2.288-15.3,4.458c-2.693.8-5.3,1.594-7.79,2.375-.329.093-.648.2-.978.3-.429.134-.848.267-1.267.391-.01-.02-.02-.03-.02-.05s-.01-.01,0-.02c-1.926-4.3-3.792-8.619-5.579-13a321.265,321.265,0,0,1-16.725-52.122c-4.831-21.761-6.756-43.945-4.181-66.088a146.041,146.041,0,0,1,12.364-44.015q1.385-2.982,2.9-5.894c.3-.613.62-1.215.955-1.818v-.01c.03-.06.069-.121.108-.191l.148-.271v-.01q1.315-2.441,2.74-4.813a126.225,126.225,0,0,1,16.626-22.129A103.311,103.311,0,0,1,249.4,405.4h.01c.708-.276,1.426-.532,2.144-.788-.274.772-.547,1.535-.811,2.307a206.659,206.659,0,0,0-8.255,31.85c-.143.831-.286,1.672-.419,2.514a213.614,213.614,0,0,0,1.825,78.648c.011.07.031.14.042.21q1.827,8.6,4.392,17c.041.16.083.309.134.469.329,1.087.678,2.174,1.027,3.252q1.524,4.712,3.288,9.353C259.624,568.272,269.116,587.634,262.968,605.936Z" transform="translate(-173.736 -110.414)" fill="#f0f0f0"/>
    <path id="Path_364" data-name="Path 364" d="M251.988,405.47q-.639.725-1.248,1.45A181.642,181.642,0,0,0,228.165,440c-.315.593-.63,1.2-.935,1.8a180.133,180.133,0,0,0-17.7,52.579c.01.01.01.01,0,.02-.029.17-.057.341-.086.521.01.01.01.02,0,.02-.724,4.286-1.278,8.611-1.662,12.934-.722,8.126-.753,16.437,1.094,24.432a43.377,43.377,0,0,0,8.909,17.906c.414.527.849,1.043,1.3,1.559.353.407.717.814,1.09,1.211,3.481,3.761,7.321,7.309,10.575,11.312a39.632,39.632,0,0,1,3.958,5.777c3.838,6.968,4.054,14.917,1.516,22.368-3.094,9.116-9.272,16.588-15.583,23.671-6.767,7.607-13.9,15.406-17.01,25.292-.329.093-.648.2-.978.3-.429.134-.848.267-1.267.391.1.249.214.5.326.747a.884.884,0,0,1-.356-.737.127.127,0,0,1,.01-.06c-.01-.01-.01-.01,0-.02a.761.761,0,0,1,.028-.21,40.98,40.98,0,0,1,3.174-7.917c0-.02,0-.02.01-.03,7.108-13.5,20.579-23.042,27.5-36.8,3.837-7.6,5.394-16.406,1.677-24.375a33.3,33.3,0,0,0-4.054-6.466c-3.113-3.994-6.923-7.5-10.363-11.164-.858-.9-1.675-1.826-2.463-2.77a45.811,45.811,0,0,1-9.342-17.033c-2.246-7.862-2.545-16.189-2.033-24.3.327-5.213.933-10.428,1.78-15.605.1-.671.219-1.332.343-2v-.01A185.048,185.048,0,0,1,249.4,405.4h.01c.4-.483.812-.967,1.228-1.44C251.5,402.984,252.85,404.5,251.988,405.47Z" transform="translate(-173.736 -110.414)" fill="#fff"/>
    <path id="Path_365" data-name="Path 365" d="M208.222,495.586a27.2,27.2,0,0,1-20.939-28.317,1.015,1.015,0,0,1,2.028.084,25.184,25.184,0,0,0,19.532,26.3c1.273.291.645,2.221-.62,1.932Z" transform="translate(-173.736 -110.414)" fill="#fff"/>
    <path id="Path_366" data-name="Path 366" d="M217.244,550.54A52.421,52.421,0,0,0,240.4,520.155c.358-1.257,2.289-.635,1.932.62a54.526,54.526,0,0,1-24.161,31.569c-1.119.677-2.041-1.131-.928-1.8Z" transform="translate(-173.736 -110.414)" fill="#fff"/>
    <path id="Path_367" data-name="Path 367" d="M227.588,439.758a15.4,15.4,0,0,0,14.583-.862c1.11-.691,2.031,1.118.928,1.8a17.252,17.252,0,0,1-16.13.989,1.048,1.048,0,0,1-.656-1.276,1.02,1.02,0,0,1,1.276-.656Z" transform="translate(-173.736 -110.414)" fill="#fff"/>
    <path id="Path_368" data-name="Path 368" d="M385.026,485.1c-.686.446-1.353.9-2.039,1.357a.01.01,0,0,1,0,.007.01.01,0,0,1-.007,0,202.639,202.639,0,0,0-25.74,20.445l-.01.01c-.635.575-1.26,1.161-1.876,1.746a214.126,214.126,0,0,0-45.8,63.744l-.088.181A208.154,208.154,0,0,0,298.337,602.1c-1.5,5.123-2.893,10.455-4.459,15.718q-8.011,1.747-15.581,3.51-9.612,2.225-18.513,4.464-3.862.947-7.584,1.913a74.241,74.241,0,0,1-14.562,4.581c-3.613.81-7.258,1.5-10.881,2.271-.01,0-.02.01-.03.01q-8.111,2.288-15.3,4.458c-2.693.8-5.3,1.594-7.79,2.375-.329.093-.648.2-.978.3.618-2.6,1.247-5.211,1.915-7.806,0-.02,0-.02.01-.03,5.955-23.39,13.913-46.487,25.127-67.642.335-.643.669-1.3,1.044-1.929A198.434,198.434,0,0,1,246.168,540c.692-.956,1.414-1.9,2.146-2.848l.01-.01q4.6-5.919,9.715-11.471c.595-.655,1.209-1.31,1.824-1.955.3-.313.6-.625.912-.938,1.15-1.19,2.33-2.369,3.531-3.51,1.885-1.816,3.83-3.582,5.816-5.3a145.991,145.991,0,0,1,25.952-17.847c.06-.03.129-.071.189-.1,26.751-14.363,57.8-20.022,86.556-11.6C383.562,484.647,384.284,484.861,385.026,485.1Z" transform="translate(-173.736 -110.414)" fill="#f0f0f0"/>
    <path id="Path_369" data-name="Path 369" d="M211.422,639.026a83.644,83.644,0,0,1,15.3-4.458Q218.614,636.856,211.422,639.026Z" transform="translate(-173.736 -110.414)" fill="#fff"/>
    <path id="Path_370" data-name="Path 370" d="M384.863,486.046c-.629.125-1.258.26-1.877.406a182.187,182.187,0,0,0-37.945,12.827c-.618.285-1.225.57-1.823.865a180.238,180.238,0,0,0-45.791,31.332.01.01,0,0,1,0,.007.01.01,0,0,1-.007,0,4.193,4.193,0,0,0-.377.363c0,.01,0,.01-.01.01q-4.733,4.465-9.123,9.326c-5.47,6.056-10.5,12.678-13.842,20.166a43.6,43.6,0,0,0-3.666,19.661c.026.67.061,1.35.117,2.029.035.54.079,1.079.134,1.629.752,7.414,2.374,14.921,1.307,22.39-1.125,7.85-5.711,14.3-12.174,18.732q-3.862.947-7.584,1.913c.478-.2.946-.428,1.415-.662,7.639-3.774,14.188-9.859,16.017-18.454,1.6-7.524-.077-15.26-.9-22.763-.13-1.209-.23-2.4-.29-3.588a.863.863,0,0,1-.011-.16,45.623,45.623,0,0,1,2.8-19.174c2.937-7.625,7.72-14.455,13.009-20.629,3.407-3.969,7.026-7.769,10.816-11.38.486-.484.982-.948,1.478-1.4a185.058,185.058,0,0,1,86.288-45.07c.619-.135,1.248-.27,1.867-.4C385.965,483.767,386.131,485.786,384.863,486.046Z" transform="translate(-173.736 -110.414)" fill="#fff"/>
    <path id="Path_371" data-name="Path 371" d="M295.657,531.646a27.2,27.2,0,0,1,.33-35.216c.858-.984,2.427.3,1.568,1.288a25.184,25.184,0,0,0-.24,32.759c.841,1-.822,2.162-1.658,1.169Z" transform="translate(-173.736 -110.414)" fill="#fff"/>
    <path id="Path_372" data-name="Path 372" d="M269.776,580.956a52.421,52.421,0,0,0,36.783-10.318c1.042-.788,2.21.871,1.169,1.658a54.526,54.526,0,0,1-38.3,10.659C268.129,582.821,268.482,580.823,269.776,580.956Z" transform="translate(-173.736 -110.414)" fill="#fff"/>
    <path id="Path_373" data-name="Path 373" d="M344.733,498.73a15.4,15.4,0,0,0,12.163,8.091c1.3.117.948,2.115-.346,2a17.251,17.251,0,0,1-13.475-8.921,1.048,1.048,0,0,1,.245-1.414,1.02,1.02,0,0,1,1.414.244Z" transform="translate(-173.736 -110.414)" fill="#fff"/>
    <path id="Path_374" data-name="Path 374" d="M491.612,555.993a63.04,63.04,0,0,1-20.054,33.7q-1.1.961-2.242,1.872c-1.872.164-3.736.337-5.576.517q-2.291.209-4.541.435l-.263.025-.189-1.642-.764-6.635a37.625,37.625,0,0,1-3.3-32.445c2.636-7.12,7.424-13.41,12.121-19.643,6.487-8.623,12.8-17.147,13.032-27.65a62.735,62.735,0,0,1,12.811,32.24,61.209,61.209,0,0,1-1.035,19.224Z" transform="translate(-173.736 -110.414)" fill="#e6e6e6"/>
    <path id="Path_375" data-name="Path 375" d="M524.813,529.781c-14.642,10.643-14.141,32.79-24.5,47.638a37.069,37.069,0,0,1-12.031,10.905,38.128,38.128,0,0,1-4.024,1.987q-7.613.591-14.946,1.256c-1.872.164-3.736.337-5.576.517q-2.291.209-4.541.435c-.008-.55-.008-1.109.008-1.659a63.269,63.269,0,0,1,15.241-39.853c.452-.526.911-1.035,1.38-1.544a61.594,61.594,0,0,1,16.818-12.7,62.7,62.7,0,0,1,32.166-6.988Z" transform="translate(-173.736 -110.414)" fill="#f2f2f2"/>
    <path id="Path_376" data-name="Path 376" d="M465.474,586.952l-1.15,3.408-.583,1.724q-2.291.209-4.541.435l-.263.025c-1.667.172-3.318.337-4.96.509q-.653-.751-1.281-1.527a62.035,62.035,0,0,1,8.072-87.112c-1.839,9.616,1.856,18.649,6.036,27.765,2.85,6.175,5.921,12.384,7.645,18.83a42.065,42.065,0,0,1,1.026,4.911A37.607,37.607,0,0,1,465.474,586.952Z" transform="translate(-173.736 -110.414)" fill="#f2f2f2"/>
    <path id="Path_377" data-name="Path 377" d="M755.514,593.471c-.293.466-.6.918-.911,1.364-.745-.08-1.483-.153-2.222-.233l-3.865-.4c-.16-.013-.319-.033-.479-.047l-.8-1.55-1.49-2.887a30.445,30.445,0,0,1-11.814-23.626c-.047-6.159,1.776-12.3,3.545-18.372,2.441-8.388,4.776-16.656,1.936-24.671A50.893,50.893,0,0,1,758.374,543.8,49.628,49.628,0,0,1,763.1,558.65,51.131,51.131,0,0,1,755.514,593.471Z" transform="translate(-173.736 -110.414)" fill="#e6e6e6"/>
    <path id="Path_378" data-name="Path 378" d="M775.848,572.379a30.477,30.477,0,0,1-17.075,20.154l-1.031,1.184-1.157,1.337-1.982-.22c-.745-.08-1.483-.153-2.222-.233l-3.865-.4c-.186-.5-.353-1-.512-1.517a51.242,51.242,0,0,1,.672-32.892q.28-.788.6-1.556a50.018,50.018,0,0,1,9.1-14.434,50.738,50.738,0,0,1,22.349-14.534C772.7,541.529,779.426,558.164,775.848,572.379Z" transform="translate(-173.736 -110.414)" fill="#f2f2f2"/>
    <path id="Path_379" data-name="Path 379" d="M752.328,593.132l.053,1.47-3.865-.4c-.16-.013-.319-.033-.479-.047q-4.739-.479-9.432-.9c-.7-.526-1.39-1.071-2.062-1.65a50.082,50.082,0,0,1-11.607-63.17c1.364,7.809,6.758,13.589,12.545,19.283,3.924,3.865,8.035,7.689,11.195,12.073a34.4,34.4,0,0,1,2.188,3.432,30.507,30.507,0,0,1,1.33,26.38Z" transform="translate(-173.736 -110.414)" fill="#f2f2f2"/>
    <path id="Path_380" data-name="Path 380" d="M1018.9,651.884a.984.984,0,0,1-.95.7,1.05,1.05,0,0,1-.3-.05,1414.768,1414.768,0,0,0-273.22-57.48l-2.98-.33c-1.12-.12-2.23-.23-3.34-.35l-5.81-.6c-.24-.02-.48-.05-.72-.07q-7.125-.72-14.18-1.35a1422.442,1422.442,0,0,0-235.97-1.64q-9.27.72-18.2,1.53c-2.28.2-4.55.41-6.79.63q-2.79.255-5.53.53l-.32.03c-2.03.21-4.04.41-6.04.62q-12.255,1.275-23.82,2.7c-149.81,18.37-243.37,55.39-244.3,55.76a1,1,0,1,1-.74-1.86c.93-.37,94.68-37.47,244.72-55.87q11.265-1.38,22.58-2.59c2.46-.26,4.91-.51,7.37-.76.19-.02.38-.03.56-.05,2.08-.21,4.15-.41,6.23-.61,2.94-.28,5.87-.55,8.81-.81q10.17-.915,20.37-1.67a1411.574,1411.574,0,0,1,201.61-.5q13.185.915,26.36,2.08c5.36.46,10.72.97,16.08,1.5l1.15.12c2.17.21,4.33.44,6.5.67,1.6.16,3.19.33,4.79.51,1.12.12,2.24.24,3.35.37a1422.719,1422.719,0,0,1,272.08,57.59.984.984,0,0,1,.65,1.25Z" transform="translate(-173.736 -110.414)" fill="#ccc"/>
    <path id="Path_381" data-name="Path 381" d="M441.394,395.8a37.481,37.481,0,0,0,14.931,20.959c2.82,1.92,6.157,3.762,7.122,7.035a8.378,8.378,0,0,1-.874,6.15,24.881,24.881,0,0,1-3.861,5.041l-.137.512c-7-4.147-13.656-9.393-17.522-16.551s-4.406-16.539.341-23.146" transform="translate(-173.736 -110.414)" fill="#f2f2f2"/>
    <path id="Path_382" data-name="Path 382" d="M794.053,432.942c-3.866-7.158-4.406-16.539.341-23.146a37.482,37.482,0,0,0,14.931,20.959c2.82,1.92,6.157,3.762,7.122,7.035a8.379,8.379,0,0,1-.874,6.15,24.884,24.884,0,0,1-3.861,5.041l-.137.512C804.577,445.345,797.919,440.1,794.053,432.942Z" transform="translate(-173.736 -110.414)" fill="#f2f2f2"/>
    <path id="Path_383" data-name="Path 383" d="M643.053,611.942c-3.866-7.158-4.406-16.539.341-23.146a37.481,37.481,0,0,0,14.931,20.959c2.82,1.92,6.157,3.762,7.122,7.035a8.379,8.379,0,0,1-.874,6.15,24.882,24.882,0,0,1-3.861,5.041l-.137.512C653.577,624.345,646.919,619.1,643.053,611.942Z" transform="translate(-173.736 -110.414)" fill="#f2f2f2"/>
    <circle id="Ellipse_45" data-name="Ellipse 45" cx="51" cy="51" r="51" transform="translate(629.817)" fill="#ff6584"/>
    <path id="Path_384" data-name="Path 384" d="M946.589,122.284c-24.717-3.341-52.935,10.019-59.341,34.124a21.6,21.6,0,0,0-41.094,2.109l2.83,2.027a372.274,372.274,0,0,0,160.659-.726C992.45,141.748,971.306,125.625,946.589,122.284Z" transform="translate(-173.736 -110.414)" fill="#f0f0f0"/>
    <path id="Path_385" data-name="Path 385" d="M840.589,190.284c-24.717-3.341-52.935,10.019-59.341,34.124a21.6,21.6,0,0,0-41.094,2.109l2.83,2.027a372.275,372.275,0,0,0,160.659-.726C886.45,209.748,865.306,193.625,840.589,190.284Z" transform="translate(-173.736 -110.414)" fill="#f0f0f0"/>
    <path id="Path_386" data-name="Path 386" d="M942,579.052a36.353,36.353,0,0,1-3.563-1.554c-.059.09-.116.182-.174.272Z" transform="translate(-173.736 -110.414)" fill="#e6e6e6"/>
    <path id="Path_387" data-name="Path 387" d="M577.947,180.453a28.514,28.514,0,1,0,49.045-19.778l-.137-.137c-.228-.24-.456-.479-.7-.707a.011.011,0,0,1-.008,0,.011.011,0,0,1,0-.008c-.3-.274-.593-.547-.9-.81a28.507,28.507,0,0,0-47.3,21.443Z" transform="translate(-173.736 -110.414)" fill="#2f2e41"/>
    <path id="Path_388" data-name="Path 388" d="M699.286,368.388a10.445,10.445,0,0,1-11.138-11.509l-62.5-71.72,19.4-11.811,55.335,74.212a10.5,10.5,0,0,1-1.1,20.827Z" transform="translate(-173.736 -110.414)" fill="#ffb6b6"/>
    <path id="Path_389" data-name="Path 389" d="M606.938,254.649s-4.9,2.541,2.435,11.646c5.871,7.289,31.3,42.161,41.839,49.763a8.205,8.205,0,0,0,2.635,9.708l18.148-20c-.593-6.09-4.678-6.032-7.007-5.44l-6.672-15.446-24.591-40.014-23.279,7.883Z" transform="translate(-173.736 -110.414)" fill="#f50057"/>
    <path id="Path_390" data-name="Path 390" d="M416.3,194.433l-1.479,7.048-1.257,26,57.582-6.841,3.879-30.1-5.362-8.811Z" fill="#ffb6b6"/>
    <circle id="Ellipse_46" data-name="Ellipse 46" cx="23.91" cy="23.91" r="23.91" transform="translate(415.84 52.726)" fill="#ffb7b7"/>
    <path id="Path_391" data-name="Path 391" d="M571.037,275.243l-.147-19.875a31.631,31.631,0,0,1,24.5-30.831l.09-.021,4.728-6.37,19.209,1.922,3.521,7.2,13.919,8.288,15.831,18.537c4.986,3.58,7.947,8.17,8.8,13.645,1.819,11.622-6.318,23.25-7.286,24.584l-2.494,14.046-64.724,8.264-.44.056Z" transform="translate(-173.736 -110.414)" fill="#f50057"/>
    <path id="Path_392" data-name="Path 392" d="M588.464,193.319c.217-.034.433-.08.65-.114,3.73-.661,7.459-1.312,11.178-1.985l.342-8.429,4.505,7.55c10.277,3.41,19.892,1.483,28.936-2.772a81.7,81.7,0,0,0,8.668-4.779,31.688,31.688,0,0,0-15.569-22.424c-.342-.194-.673-.365-1.015-.536a.011.011,0,0,1-.011-.011c-.582-.274-1.175-.536-1.768-.776a26.338,26.338,0,0,0-27.648,5.361C589.433,171.374,586.148,182.883,588.464,193.319Z" transform="translate(-173.736 -110.414)" fill="#2f2e41"/>
    <path id="Path_393" data-name="Path 393" d="M429.233,451.256l11.964,9.2,41.2-41.769-17.659-13.586Z" fill="#ffb6b6"/>
    <path id="Path_394" data-name="Path 394" d="M604.543,553.484l19.782,13.424-6.235,8.1,8.426,26.255a6.387,6.387,0,0,1-9.976,7.014l-22.517-17.326,2.286-11-7.683,6.849-8.49-6.533Z" transform="translate(-173.736 -110.414)" fill="#2f2e41"/>
    <path id="Path_395" data-name="Path 395" d="M398.617,519.762h15.1l7.182-58.23H398.614Z" fill="#ffb6b6"/>
    <path id="Path_396" data-name="Path 396" d="M564.143,510.692v-.156l5.671-9.772-5.79-12.72-.411-77.307c-2.281-55.866,23.069-82.721,23.324-82.985l.7-.731,3.813,2.888,3.629,0,51.6-4.165.354.659c1.926,3.613,3.026,29.157,3.247,34.793,2.441,2.826,30.246,35,32.717,37.236,16.7,15.113,26.266,40.126,30.479,53.692a21.542,21.542,0,0,1-3.689,19.81l-60.075,75.612-.336.424-29.066-20.664,43.444-64.166-2.467-6.326a19.442,19.442,0,0,1-11.335-6.585l-6.928-8.224a15.376,15.376,0,0,1-3.509-8l-4.2-.506-15.05-15.8-13.871,72.832,3.43,21.723-2.839,7.469-11.325,86.577-.129.994H564.657Z" transform="translate(-173.736 -110.414)" fill="#2f2e41"/>
    <path id="Path_397" data-name="Path 397" d="M567.241,622.729l23.864-1.424v10.225l22.689,15.67a6.387,6.387,0,0,1-3.629,11.642H581.753l-4.9-10.114-1.912,10.114H564.232Z" transform="translate(-173.736 -110.414)" fill="#2f2e41"/>
    <path id="Path_398" data-name="Path 398" d="M570.992,383.461a10.445,10.445,0,0,1,3.219-15.689l-15.719-46.536,12.836-49.316,20.7,9.357-12.772,37.2,9.555,54.144a10.5,10.5,0,0,1-17.817,10.842Z" transform="translate(-173.736 -110.414)" fill="#ffb6b6"/>
    <path id="Path_399" data-name="Path 399" d="M589.937,231.285s-4.861-2.61-8.242,8.581c-2.707,8.959-21.126,57.6-21.458,70.593a8.205,8.205,0,0,0-6.53,7.652l26.752,3.7c4.694-3.925,2.342-7.265.539-8.855l9.112-15.433,19.045-41.666-15.67-22.749Z" transform="translate(-173.736 -110.414)" fill="#f50057"/>
    <path id="Path_400" data-name="Path 400" d="M537.664,214.241c8.137-4.2,12.945-13.042,15.048-21.954s1.973-18.178,2.937-27.284,3.234-18.5,9.243-25.407c3.839-4.415,9.5-7.675,15.322-7.121a13.777,13.777,0,0,1,12.074,17.011c1.658-2.35,5.95-1.841,7.013.832.945,2.376-1.142,5.255-3.6,5.465-3.213,3.968-6.892,8.179-11.926,8.979a5.431,5.431,0,0,1-4.628-1.068c-1.184-1.137-1.276-3.411.128-4.261-6.326,2.513-10.035,9.352-10.973,16.094s.36,13.563,1.216,20.316,1.224,13.856-1.423,20.127c-3.128,7.409-10.331,12.719-18.19,14.422s-16.231.039-23.345-3.711-13.047-9.475-17.894-15.893C517.015,216.717,528.565,218.938,537.664,214.241Z" transform="translate(-173.736 -110.414)" fill="#2f2e41"/>
    <path id="Path_401" data-name="Path 401" d="M589.114,193.205s7.083-26.438,37.445-32.541c.034-.011.148-.057.3-.125.091-.057.205-.114.319-.171-.342-.194-.673-.365-1.015-.536a.011.011,0,0,1-.011-.011c-.3-.274-.593-.547-.9-.81l-.867.034S593.916,154.22,589.114,193.205Z" transform="translate(-173.736 -110.414)" fill="#fd6584"/>
    <path id="Path_402" data-name="Path 402" d="M404.053,184.942c-3.866-7.158-4.406-16.539.341-23.145a37.481,37.481,0,0,0,14.931,20.959c2.82,1.92,6.157,3.762,7.122,7.035a8.378,8.378,0,0,1-.874,6.15,24.884,24.884,0,0,1-3.861,5.041l-.137.512C414.577,197.345,407.919,192.1,404.053,184.942Z" transform="translate(-173.736 -110.414)" fill="#f2f2f2"/>
    <path id="Path_403" data-name="Path 403" d="M1017.95,789.584a.978.978,0,0,1-.3-.047c-264.407-83.618-497.444-72.684-646.38-48.786-20.269,3.251-40.591,7.006-60.4,11.161-5.058,1.06-10.306,2.2-15.6,3.378-6.319,1.407-12.554,2.856-18.532,4.306q-3.873.917-7.595,1.849c-3.758.928-7.572,1.895-11.66,2.957-4.568,1.178-9.209,2.413-13.8,3.672a.439.439,0,0,1-.051.015h0c-5.183,1.415-10.338,2.871-15.323,4.325-2.7.779-5.3,1.548-7.8,2.307-.279.077-.526.151-.776.228l-.536.163c-.311.095-.617.188-.924.275l-.02.006h0l-.812.252c-.968.293-1.912.579-2.841.864-24.545,7.566-38.038,12.949-38.171,13a1,1,0,0,1-.744-1.856c.134-.053,13.693-5.463,38.328-13.058.932-.286,1.879-.572,2.85-.866l.754-.234c.026-.01.052-.018.078-.025.305-.087.61-.18.919-.273l.537-.163c.268-.081.531-.161.8-.235,2.479-.754,5.093-1.524,7.8-2.307,4.987-1.455,10.148-2.911,15.334-4.328.016-.006.033-.01.049-.015h0c4.6-1.263,9.263-2.5,13.845-3.685,4.094-1.063,7.915-2.032,11.68-2.962q3.738-.93,7.609-1.853c5.985-1.451,12.233-2.9,18.563-4.312,5.3-1.184,10.556-2.322,15.622-3.383,19.843-4.162,40.2-7.923,60.5-11.179,149.149-23.932,382.521-34.884,647.3,48.854a1,1,0,0,1-.3,1.953Z" transform="translate(-173.736 -110.414)" fill="#ccc"/>
    <path id="Path_404" data-name="Path 404" d="M368.743,669.156c12.26-5,70.363-11.622,83.562-10.643,1.929.143,2.091-2.853.167-3-13.755-1.02-72.356,5.772-85.12,10.981-1.784.728-.386,3.384,1.392,2.659Z" transform="translate(-173.736 -110.414)" fill="#ccc"/>
    <path id="Path_405" data-name="Path 405" d="M200.568,707.484a86.024,86.024,0,0,1,38.909-5.3c1.926.182,2.149-2.81.228-2.992a89.417,89.417,0,0,0-40.474,5.6c-1.8.692-.455,3.376,1.337,2.686Z" transform="translate(-173.736 -110.414)" fill="#ccc"/>
    <path id="Path_406" data-name="Path 406" d="M686.02,655.747a86.022,86.022,0,0,1,39.2,2.263c1.855.548,2.648-2.346.8-2.893a89.417,89.417,0,0,0-40.8-2.263C683.324,653.188,684.129,656.08,686.02,655.747Z" transform="translate(-173.736 -110.414)" fill="#ccc"/>
    <path id="Path_407" data-name="Path 407" d="M979.553,500.414l14.8-11.718a60.912,60.912,0,0,0-10.8-27.246c-1.06,17.593-19.5,28.8-26.245,45.078a36.638,36.638,0,0,0,2,31.694l1.014,13.351a61.394,61.394,0,0,0,32.766-39.609,59.309,59.309,0,0,0,1.833-14.764C987.474,499.2,979.553,500.414,979.553,500.414Z" transform="translate(-173.736 -110.414)" fill="#f50057"/>
    <path id="Path_408" data-name="Path 408" d="M944.613,618.27c-5.9,1.356-11.059,2.144-11.059,2.144l9.133-7.23c-2.067-6.051-3.191-12.144-1.849-18.441a60.5,60.5,0,0,0-1.66,93.055l4.54-12.6A36.638,36.638,0,0,0,954.1,645.19C952.95,635.88,948.226,627.072,944.613,618.27Z" transform="translate(-173.736 -110.414)" fill="#f50057"/>
    <path id="Path_409" data-name="Path 409" d="M938.363,471.672a102.021,102.021,0,0,0-8.81,8.742l4.716-10.887a13.07,13.07,0,0,0-10.96.727c-3.889,2.28-6.218,6.711-6.658,11.2a24.517,24.517,0,0,0,2.812,13.05,37.9,37.9,0,0,0,16.972,17c3.6-5.554,6.979-11.4,8.417-17.853,1.461-6.562.662-13.926-3.531-19.18a15.077,15.077,0,0,0-2.957-2.793Z" transform="translate(-173.736 -110.414)" fill="#f50057"/>
    <path id="Path_410" data-name="Path 410" d="M1011.55,591.414l13.721-10.863a59.8,59.8,0,0,0,.47-18.661c-9.22,15.022-30.759,16.224-44.38,27.409A36.638,36.638,0,0,0,968.2,618.2L962.8,630.454a61.394,61.394,0,0,0,47.558-19.513,60.529,60.529,0,0,0,12.708-21.778C1016.98,590.584,1011.55,591.414,1011.55,591.414Z" transform="translate(-173.736 -110.414)" fill="#f50057"/>
    <path id="Path_411" data-name="Path 411" d="M936.493,685.324q-3.93,5.07-8.33,9.76c1.09.33,2.15.65,3.19.97q3.855-4.185,7.35-8.67.585-.75,1.17-1.53a142.746,142.746,0,0,0,11.46-17.64,145.487,145.487,0,0,0,14.4-37.69c.06-.23.11-.45.16-.68.81-3.62,1.48-7.28,2-10.95.11-.74.21-1.49.31-2.23q.375-3.045.63-6.09a138.764,138.764,0,0,0,.06-22.24,145.079,145.079,0,0,0-7.86-37.11c-.3-.85-.6-1.7-.93-2.54-.18-.5-.37-1-.56-1.5a145.093,145.093,0,0,0-20.75-36.68c-.32-.41-.64-.81-.96-1.21q-1.14-1.425-2.31-2.82a1.3,1.3,0,0,0-2.11.1,1.533,1.533,0,0,0-.02,2.02c.63.75,1.26,1.51,1.86,2.28.75.91,1.47,1.84,2.17,2.78a142.405,142.405,0,0,1,28.02,69.93,138.795,138.795,0,0,1-2.79,46.83h-.01a140.987,140.987,0,0,1-9.15,26.87q-1.185,2.58-2.47,5.11a139.555,139.555,0,0,1-7.34,12.79Q940.323,680.419,936.493,685.324Z" transform="translate(-173.736 -110.414)" fill="#3f3d56"/>
    <path id="Path_412" data-name="Path 412" d="M910.02,699.747a86.024,86.024,0,0,1,39.2,2.263c1.855.548,2.648-2.346.8-2.893a89.417,89.417,0,0,0-40.8-2.263C907.324,697.188,908.129,700.08,910.02,699.747Z" transform="translate(-173.736 -110.414)" fill="#ccc"/>
  </g>
</svg>
